<svg width="24" height="19" viewBox="0 0 24 19" fill="none" xmlns="http://www.w3.org/2000/svg">
<path d="M5.09903 9.67389C5.01311 10.4038 4.66615 11.0294 4.08032 11.3759C3.49242 11.7224 2.79084 11.7179 2.13119 11.4294C1.5055 11.1564 0.913468 10.6236 0.504213 9.89764C0.0946622 9.16924 -0.0603587 8.37856 0.0208427 7.68917C0.106769 6.95926 0.454311 6.33336 1.04132 5.98655C1.62745 5.64004 2.32962 5.64548 2.98898 5.93364C3.61408 6.20697 4.20641 6.73944 4.61566 7.46542C5.0258 8.19321 5.18023 8.98389 5.09903 9.67389ZM19.1693 11.3759C18.5826 11.0294 18.2357 10.4038 18.1497 9.67389C18.0685 8.98389 18.223 8.19321 18.6328 7.46632C19.0423 6.73944 19.6347 6.20697 20.2598 5.93364C20.9191 5.64548 21.6213 5.64004 22.2074 5.98655C22.7944 6.33336 23.142 6.95926 23.2279 7.68917C23.3091 8.37856 23.1541 9.16924 22.7445 9.89613C22.3353 10.6236 21.7433 11.1564 21.1176 11.4294C20.4579 11.7179 19.7563 11.7224 19.1693 11.3759ZM14.5004 0.474143C15.1904 0.013642 15.9809 -0.136029 16.7079 0.134588C17.4346 0.405506 17.9466 1.04138 18.1857 1.84899C18.4143 2.61912 18.3933 3.55221 18.0697 4.46324C17.7452 5.37547 17.1753 6.10447 16.5168 6.54441C15.8271 7.00492 15.0363 7.15459 14.3096 6.88397C13.583 6.61305 13.0709 5.97718 12.8318 5.16956C12.6032 4.39944 12.6242 3.46634 12.9478 2.55532C13.272 1.64308 13.8416 0.914084 14.5004 0.474143ZM6.54028 0.134588C7.26726 -0.136029 8.05772 0.013642 8.74778 0.474143C9.40654 0.914084 9.97614 1.64308 10.3004 2.55532C10.624 3.46634 10.6449 4.39944 10.4164 5.16956C10.1772 5.97718 9.66521 6.61305 8.93853 6.88397C8.21185 7.15459 7.4211 7.00522 6.73103 6.54411C6.07286 6.10447 5.50268 5.37547 5.17846 4.46324C4.85484 3.55221 4.83387 2.61912 5.06242 1.84899C5.30159 1.04138 5.8136 0.405506 6.54028 0.134588ZM18.1063 14.6807C18.0995 14.8095 18.0895 14.9341 18.0765 15.0523C18.008 15.6804 17.8078 16.2518 17.4898 16.7453C17.1718 17.2391 16.7371 17.6518 16.2003 17.9626C15.6623 18.2743 15.0924 18.444 14.5154 18.4688C13.9399 18.4939 13.3588 18.375 12.7978 18.1117C12.6183 18.0276 12.4261 17.9611 12.2253 17.9166C12.0322 17.8734 11.8305 17.8507 11.6244 17.8507C11.418 17.8507 11.216 17.8734 11.0229 17.9166C10.8221 17.9614 10.6302 18.0273 10.4509 18.1114C9.88962 18.3747 9.30881 18.4936 8.73331 18.4685C8.15634 18.4434 7.58616 18.274 7.04846 17.9626C6.51164 17.6518 6.07699 17.2391 5.75898 16.7453C5.44096 16.2518 5.24076 15.6804 5.17226 15.0523C5.15927 14.9338 5.14923 14.8095 5.14244 14.6807C5.13535 14.5456 5.13151 14.421 5.13151 14.3082C5.13151 12.4735 5.85849 10.8114 7.0331 9.60827C8.20949 8.40396 9.83234 7.65953 11.6244 7.65953C13.4164 7.65953 15.0393 8.40396 16.2142 9.60676C17.3903 10.8114 18.1172 12.4735 18.1172 14.3082C18.1172 14.421 18.1134 14.5462 18.1063 14.6807Z" fill="#4F00CF"/>
</svg>
