<svg width="110" height="110" viewBox="0 0 110 110" fill="none" xmlns="http://www.w3.org/2000/svg">
<path d="M36.2548 40.4028C41.3964 28.6575 55.5946 24.8398 65.431 33.6151C67.4453 35.4077 69.043 37.6952 70.2319 40.4553C73.6167 48.3681 71.966 55.6058 65.272 62.146C55.8747 71.3562 46.4244 80.574 36.9287 89.8218C36.1639 90.5718 35.3991 90.5643 34.6343 89.8143C25.2598 80.5815 17.2014 71.2812 7.85714 62.146C0.292372 54.7507 -2.28844 44.2954 4.08747 35.6852C6.48791 32.4376 10.4331 30.15 14.4692 29.2725C24.033 27.1949 31.4236 32.3401 35.8762 40.4253C35.9595 40.5753 36.1791 40.5678 36.2548 40.4028Z" fill="#8C46FF"/>
<path d="M72.3135 40.4028C77.4551 28.6575 91.6533 24.8398 101.49 33.6151C103.504 35.4077 105.102 37.6952 106.291 40.4553C109.675 48.3681 108.184 55.7258 101.49 62.266C92.0924 71.4762 82.4831 80.574 72.9874 89.8218C72.2226 90.5718 71.4578 90.5643 70.693 89.8143C61.3184 80.5815 51.959 71.4012 42.6148 62.266C35.05 54.8707 33.7703 44.2954 40.1462 35.6852C42.5466 32.4376 46.4918 30.15 50.5279 29.2725C60.0917 27.1949 67.4823 32.3401 71.9349 40.4253C72.0182 40.5753 72.2378 40.5678 72.3135 40.4028Z" fill="#4F00CF"/>
</svg>
