<svg width="379" height="403" viewBox="0 0 379 403" fill="none" xmlns="http://www.w3.org/2000/svg">
<g style="mix-blend-mode:luminosity" opacity="0.88">
<path d="M124.559 263.03C122.68 262.602 121.253 263.607 120.57 265.296C120.61 265.197 120.176 266.216 120.341 265.847C120.506 265.476 120.058 266.492 120.101 266.392C119.923 266.808 119.746 267.223 119.568 267.639C119.124 268.677 118.679 269.716 118.231 270.754C117.477 272.502 116.733 274.252 115.995 276.005C115.013 275.066 113.706 274.497 112.241 274.474C110.178 274.44 108.066 275.642 106.377 276.738C103.926 278.328 101.836 280.318 99.9817 282.528C99.8799 282.422 99.7835 282.311 99.67 282.215C97.2793 280.152 94.134 280.657 91.8737 282.626C90.3252 283.974 89.1803 285.936 88.0122 287.614C86.8673 289.256 85.7635 290.925 84.6972 292.619C80.3248 299.569 76.6598 306.932 73.6243 314.558C70.6638 321.997 68.3866 329.71 66.8496 337.569C66.1191 341.308 65.4404 345.019 66.0352 348.824C66.6281 352.619 69.1465 356.112 73.0635 356.922C77.0625 357.749 81.4358 356.175 84.6186 353.76C87.5978 351.501 89.9385 348.637 91.9032 345.464C93.8 342.401 95.3066 339.119 96.848 335.869C98.7886 331.776 100.707 327.672 102.604 323.558C106.396 315.329 110.101 307.06 113.715 298.753C117.378 290.335 121.042 281.901 124.377 273.347C125.199 271.24 125.977 269.116 126.824 267.021C127.462 265.442 126.131 263.387 124.559 263.03Z" fill="#B36447"/>
<path d="M124.559 263.03C122.68 262.602 121.253 263.607 120.57 265.296C120.61 265.197 120.176 266.216 120.341 265.847C120.506 265.476 120.058 266.492 120.101 266.392C119.923 266.808 119.746 267.223 119.568 267.639C119.124 268.677 118.679 269.716 118.231 270.754C117.477 272.502 116.733 274.252 115.995 276.005C115.013 275.066 113.706 274.497 112.241 274.474C110.178 274.44 108.066 275.642 106.377 276.738C103.926 278.328 101.836 280.318 99.9817 282.528C99.8799 282.422 99.7835 282.311 99.67 282.215C97.2793 280.152 94.134 280.657 91.8737 282.626C90.3252 283.974 89.1803 285.936 88.0122 287.614C86.8673 289.256 85.7635 290.925 84.6972 292.619C80.3248 299.569 76.6598 306.932 73.6243 314.558C73.2823 315.42 72.95 316.286 72.6259 317.153C74.6486 316.009 76.7205 314.965 78.9102 314.193C82.0922 313.072 85.4188 312.65 88.7784 312.965C92.0621 313.273 95.2744 314.19 98.251 315.606C100.403 316.628 102.53 317.981 104.393 319.618C107.558 312.689 110.676 305.738 113.715 298.753C117.378 290.335 121.042 281.901 124.377 273.347C125.199 271.24 125.977 269.116 126.824 267.021C127.462 265.442 126.131 263.387 124.559 263.03Z" fill="#9E513A"/>
<path d="M259.553 267.023C258.307 262.859 256.646 258.794 253.974 255.335C251.509 252.143 248.265 249.894 244.534 248.419C237.4 245.599 229.02 246.755 222.987 251.461C217.355 255.852 213.848 263.645 214.612 270.799C214.754 272.133 214.843 273.38 215.674 274.45C215.615 275.14 215.601 275.833 215.652 276.514C215.874 279.478 216.355 282.419 217.169 285.278C218.813 291.05 221.608 296.4 225.328 301.097C227.031 303.248 228.959 305.205 231.062 306.965C230.027 310.431 228.842 313.851 227.476 317.2C226.157 320.432 224.14 324.456 222.201 327.817C220.132 331.405 217.831 334.865 215.307 338.149C215.266 338.201 215.241 338.235 215.227 338.254C215.192 338.298 215.151 338.349 215.096 338.419C214.941 338.614 214.787 338.811 214.631 339.007C214.323 339.393 214.008 339.776 213.698 340.163C212.879 341.184 212.098 342.198 211.703 343.469C210.946 345.904 211.855 348.412 213.557 350.209C216.47 353.283 221.137 353.872 225.088 352.987C229.137 352.081 232.822 349.732 235.986 347.127C241.648 342.466 246.455 336.72 250.471 330.605C258.483 318.41 262.544 303.421 262.629 288.876C262.673 281.516 261.665 274.078 259.553 267.023Z" fill="#B36447"/>
<path d="M259.553 267.023C258.307 262.859 256.646 258.794 253.974 255.335C251.509 252.143 248.265 249.894 244.534 248.419C237.4 245.599 229.02 246.755 222.987 251.461C217.355 255.852 213.848 263.645 214.612 270.799C214.754 272.133 214.843 273.38 215.674 274.45C215.615 275.14 215.601 275.833 215.652 276.514C215.821 278.773 216.144 281.018 216.647 283.225C217.293 283.991 217.964 284.733 218.639 285.487C219.723 286.698 220.865 287.856 222.031 288.987C224.411 291.292 226.899 293.482 229.3 295.764C231.726 298.069 234.067 300.471 236.095 303.14C237.66 305.199 238.977 307.43 240.163 309.726C242.54 314.33 244.464 319.196 246.025 324.134C246.999 327.217 247.841 330.378 248.42 333.58C249.123 332.599 249.812 331.61 250.471 330.605C258.483 318.41 262.544 303.421 262.629 288.876C262.673 281.516 261.665 274.078 259.553 267.023Z" fill="#9E513A"/>
<path d="M221.537 271.695C221.562 271.883 221.552 271.814 221.537 271.695Z" fill="#B36447"/>
<path d="M246.219 257.169C246.212 257.162 246.205 257.157 246.2 257.152C246.116 257.103 246.034 257.049 245.953 256.991C245.911 256.98 245.961 257.029 246.219 257.169Z" fill="#B36447"/>
<path d="M45.8567 343.892L146.924 310.346L166.223 368.584L65.1557 402.13L45.8567 343.892Z" fill="#FA9F9F"/>
<path d="M130.87 323.186C128.475 331.071 124.173 338.172 119.163 344.658C114.063 351.262 108.266 357.274 102.541 363.327C102.828 364.165 103.139 364.995 103.503 365.804C104.785 368.646 106.539 371.449 109.077 373.303C111.197 374.853 113.682 375.615 116.27 375.635C119.13 375.657 121.961 374.863 124.594 373.722C127.818 372.323 130.811 370.419 133.615 368.312C136.798 365.917 139.754 363.218 142.533 360.366C145.502 357.32 148.28 354.083 150.862 350.703C153.136 347.729 155.258 344.638 157.227 341.452L146.917 310.347L132.554 315.112C132.231 317.844 131.672 320.549 130.87 323.186Z" fill="#E18A8A"/>
<path fill-rule="evenodd" clip-rule="evenodd" d="M147.213 309.944C147.435 310.108 147.483 310.421 147.32 310.643L110.365 360.944C110.244 361.109 110.034 361.183 109.836 361.132L45.7311 344.366C45.4639 344.296 45.304 344.022 45.3739 343.755C45.4438 343.488 45.717 343.328 45.9841 343.398L109.76 360.078L146.514 310.051C146.677 309.828 146.99 309.781 147.213 309.944Z" fill="#130000"/>
<path fill-rule="evenodd" clip-rule="evenodd" d="M107.492 359.496C107.244 359.373 106.944 359.473 106.821 359.72L89.9815 393.523C89.8584 393.77 89.9589 394.071 90.206 394.194C90.4531 394.317 90.7533 394.217 90.8764 393.97L107.716 360.167C107.839 359.92 107.739 359.619 107.492 359.496Z" fill="#130000"/>
<path fill-rule="evenodd" clip-rule="evenodd" d="M112.096 357.958C111.965 358.201 112.056 358.504 112.299 358.635L144.71 376.095C144.953 376.226 145.256 376.135 145.387 375.892C145.518 375.649 145.427 375.345 145.184 375.214L112.773 357.755C112.53 357.624 112.227 357.715 112.096 357.958Z" fill="#130000"/>
<path d="M116.383 342.403C113.73 342.584 110.873 344.524 109.444 347.476C108.781 348.842 108.275 350.323 107.983 351.816C107.142 351.066 106.211 350.425 105.428 349.908C102.857 348.214 99.37 347.161 96.5211 348.815C91.195 351.907 94.3805 359.636 98.3715 362.192C101.56 364.232 109.369 367.312 113.258 366.879C117.782 366.374 122.661 351.223 122.074 347.703C121.415 343.753 118.998 342.224 116.383 342.403Z" fill="#FE4662"/>
<path d="M329.176 176.119C325.465 167.78 319.152 160.928 313.517 153.87C310.464 150.043 307.522 146.138 305.19 141.819C304.055 139.716 303.065 137.513 302.264 135.261C301.792 133.931 301.407 132.593 301.06 131.243C300.879 129.437 300.828 127.602 300.893 125.809C300.934 124.73 299.166 124.449 298.975 125.549C298.746 126.873 298.636 128.203 298.608 129.533C298.429 131.739 298.623 133.938 299.094 136.104C299.312 137.515 299.579 138.922 299.883 140.315C300.992 145.382 303.389 150.161 305.744 154.746C310.255 163.526 315.806 172.591 317.067 182.573C317.693 187.516 317.191 192.6 314.95 197.102C312.562 201.902 308.709 205.843 303.952 208.315C292.283 214.379 278.708 208.779 268.581 202.23C262.804 198.494 257.414 194.201 251.713 190.352C245.932 186.449 239.788 183.284 233.281 180.778C221.594 176.276 209.167 173.595 196.752 172.117C173.184 169.313 149.011 171.552 126.261 178.263C106.626 184.056 88.0264 193.231 71.5631 205.415C70.0842 206.51 68.616 207.632 67.005 208.519C65.1019 209.568 63.0336 210.27 61.0046 211.046C34.8293 221.063 5.58826 249.138 14.9331 279.813C17.397 287.903 16.7067 296.483 10.9055 303.046C9.5543 304.574 8.104 305.811 6.52956 306.887C4.63629 308.18 2.75196 309.479 1.45972 311.417C-0.71753 314.677 -0.258503 318.919 1.52134 322.233C5.73206 330.074 14.041 330.358 21.6622 328.837C30.4954 327.076 39.2088 324.714 47.7258 321.783C57.6637 318.364 67.3354 314.171 76.6222 309.249C85.8376 304.366 93.8812 298.144 102.652 292.653C105.877 290.633 109.42 289.223 112.927 287.785C114.473 287.151 121.431 285.139 122.029 283.586C120.881 286.569 119.729 289.55 118.794 292.611C117.61 296.487 116.397 300.355 115.277 304.25C113.068 311.927 110.853 319.602 108.655 327.282C107.54 331.177 106.426 335.074 105.311 338.969C104.236 342.728 103.021 346.479 102.169 350.298C101.354 353.945 100.915 358.019 102.265 361.6C103.408 364.631 105.632 367.367 108.641 368.688C112.037 370.179 115.57 369.509 118.482 367.287C121.221 365.201 123.478 362.507 125.43 359.686C129.239 354.178 131.704 347.869 134.173 341.684C139.652 327.958 145.769 314.507 152.538 301.369C157.413 291.91 162.691 282.707 168.152 273.6C168.294 273.622 168.436 273.645 168.584 273.653C170.121 273.734 171.693 273.568 173.229 273.522C176.278 273.433 179.328 273.444 182.377 273.47C188.426 273.524 194.471 273.908 200.484 274.558C210.241 275.614 220.115 277.62 229.691 280.434C229.753 280.676 229.81 280.92 229.876 281.162C231.47 287.007 234.061 292.544 237.532 297.51C241.237 302.812 245.983 307.195 250.026 312.216C250.159 312.379 250.291 312.544 250.421 312.711C250.378 312.656 250.189 312.405 250.408 312.694C250.625 312.976 250.836 313.262 251.045 313.551C251.51 314.195 251.954 314.852 252.377 315.525C253.138 316.741 253.824 318.007 254.405 319.319C254.429 319.385 254.616 319.841 254.657 319.949C254.777 320.271 254.892 320.597 254.998 320.924C255.24 321.669 255.443 322.425 255.602 323.192C255.669 323.518 255.722 323.846 255.778 324.174V324.218C255.784 324.363 255.808 324.509 255.819 324.655C255.879 325.433 255.888 326.216 255.84 326.994C255.823 327.263 255.785 327.531 255.766 327.8C255.744 327.896 255.734 327.997 255.716 328.091C255.609 328.68 255.47 329.266 255.303 329.841C255.158 330.342 254.992 330.837 254.807 331.323C254.792 331.362 254.775 331.417 254.749 331.49C254.606 331.794 254.474 332.103 254.327 332.404C253.322 334.462 252.035 336.369 250.663 338.196C250.63 338.24 250.511 338.397 250.412 338.528C250.385 338.561 250.091 338.942 250.019 339.034C249.63 339.529 249.236 340.021 248.841 340.51C248.122 341.402 247.401 342.29 246.688 343.188C245.11 345.172 243.545 347.184 242.208 349.342C239.425 353.835 236.576 360.609 239.75 365.58C242.896 370.508 249.535 371.338 254.566 369.151C260.033 366.775 263.679 361.238 267.106 356.619C274.177 347.085 280.352 336.888 285.553 326.218C290.801 315.449 295.109 304.207 298.342 292.672C301.65 280.866 303.959 268.652 304.848 256.415C305.238 251.034 305.194 245.626 304.491 240.283C304.701 240.225 304.906 240.148 305.095 240.025C312.755 235.024 320.169 229.566 325.295 221.844C329.744 215.147 332.297 207.297 333.03 199.313C333.756 191.4 332.404 183.373 329.176 176.119Z" fill="#C97751"/>
<path d="M299.883 140.315C300.992 145.382 303.389 150.162 305.744 154.746C310.256 163.527 315.806 172.591 317.067 182.573C317.693 187.516 317.191 192.6 314.95 197.102C312.562 201.902 308.709 205.843 303.952 208.315C302.375 209.134 300.762 209.735 299.129 210.155C300.656 210.968 302.27 211.621 303.942 212.051C305.367 212.416 306.811 212.534 308.276 212.597C309.905 212.665 311.539 212.638 313.161 212.492C316.172 212.224 319.171 211.524 321.946 210.316C324.799 209.075 327.412 207.336 329.698 205.227C330.775 204.232 331.76 203.151 332.706 202.033C332.836 201.13 332.946 200.222 333.03 199.313C333.756 191.4 332.404 183.373 329.176 176.119C325.465 167.78 319.152 160.928 313.517 153.87C310.464 150.044 307.522 146.138 305.19 141.819C304.056 139.717 303.065 137.513 302.264 135.261C301.792 133.931 301.407 132.593 301.06 131.243C300.88 129.438 300.828 127.601 300.893 125.809C300.934 124.729 299.165 124.449 298.974 125.55C298.746 126.874 298.636 128.203 298.608 129.533C298.429 131.739 298.623 133.938 299.094 136.104C299.311 137.516 299.579 138.922 299.883 140.315Z" fill="#B36447"/>
<path d="M227.951 268.487C227.824 264.604 227.932 260.706 228.361 256.844C228.791 252.971 229.539 249.097 230.904 245.438C231.096 244.922 231.312 244.409 231.538 243.898C230.756 244.698 229.946 245.47 229.122 246.213C226.606 248.476 223.861 250.481 220.989 252.265C215.096 255.924 208.674 258.666 202.159 261.006C195.584 263.368 188.877 265.334 182.218 267.436C179.021 268.446 175.668 269.3 172.867 271.215C171.853 271.907 170.95 272.735 170.165 273.659C171.189 273.629 172.217 273.552 173.229 273.522C176.278 273.433 179.328 273.444 182.377 273.47C188.425 273.524 194.472 273.907 200.484 274.558C210.073 275.595 219.773 277.555 229.192 280.294C229.185 280.256 229.178 280.219 229.171 280.182C228.471 276.317 228.08 272.412 227.951 268.487Z" fill="#B36447"/>
<path d="M107.824 289.938C108.318 286.73 108.054 283.421 107.498 280.239C106.939 277.036 106.06 273.901 105.13 270.787C104.166 267.561 103.121 264.359 101.964 261.196C99.612 254.762 96.8158 248.472 93.2615 242.604C89.7643 236.83 85.5161 231.482 80.3525 227.11C77.5787 224.762 74.4861 222.492 71.0925 221.135C69.4395 220.473 67.681 220.042 65.8914 220.107C63.9874 220.176 62.1138 220.861 60.5536 221.948C60.3054 222.12 60.066 222.013 59.9374 221.818C59.5597 222.165 59.2167 222.552 58.9193 222.964C57.2931 225.216 56.5429 228.124 56.3965 230.87C56.2277 234.021 57.043 236.989 58.6425 239.694C60.3411 242.569 62.6094 245.04 64.7626 247.572C65.903 248.914 66.9657 250.288 67.9177 251.771C68.9706 253.41 69.919 255.113 70.821 256.838C72.6285 260.296 74.1967 263.9 76.1748 267.267C78.1761 270.674 80.3391 273.981 82.1788 277.483C83.095 279.228 83.9354 281.014 84.6552 282.848C85.2812 284.446 85.6661 286.072 85.9564 287.761C86.5244 291.057 86.8441 294.541 88.4265 297.546C89.0249 298.682 89.8367 299.695 90.8047 300.503C94.7234 297.866 98.6108 295.182 102.652 292.653C104.308 291.616 106.048 290.74 107.824 289.938Z" fill="#B36447"/>
<path d="M46.8409 310.864C46.8221 309.921 46.6891 308.996 46.439 308.088C46.3149 307.636 46.1693 307.191 45.9818 306.76C45.7996 306.341 45.5763 305.952 45.4629 305.51C45.462 305.507 45.4638 305.504 45.4629 305.501C44.7681 307.332 43.967 309.12 43.0829 310.871C42.3837 312.257 41.6442 313.626 40.8485 314.96C40.6083 315.532 40.3189 316.09 39.9921 316.641C38.1935 319.679 35.7823 322.4 33.1567 324.747C32.3771 325.444 31.5456 326.147 30.6722 326.805C34.6043 325.828 38.5096 324.745 42.3756 323.534C43.7831 321.421 44.9592 319.151 45.7889 316.77C46.4506 314.875 46.8811 312.879 46.8409 310.864Z" fill="#B36447"/>
<path d="M141.254 317.396C138.771 320.154 136.491 323.09 134.102 325.928C129.408 331.504 124.426 336.931 118.462 341.176C113.644 344.607 108.141 346.981 102.53 348.823C102.408 349.315 102.279 349.805 102.169 350.298C101.354 353.945 100.914 358.02 102.264 361.601C103.408 364.631 105.632 367.368 108.641 368.688C112.038 370.179 115.569 369.508 118.481 367.288C121.22 365.201 123.478 362.507 125.43 359.686C129.239 354.178 131.703 347.87 134.172 341.684C138.421 331.041 143.059 320.564 148.082 310.267C145.78 312.619 143.456 314.951 141.254 317.396Z" fill="#B36447"/>
<path d="M33.9363 230.649C33.9729 230.633 34.0246 230.608 34.0816 230.576C34.0762 230.578 34.0718 230.58 34.0664 230.583C34.0246 230.607 33.9791 230.626 33.9363 230.649Z" fill="#130000"/>
<path d="M90.3653 261.997C85.0928 251.559 79.7613 240.792 70.9416 232.841C62.6094 225.331 51.4133 220.485 40.1055 223.127C38.106 223.594 36.0886 224.245 34.1855 225.11C33.4014 224.076 32.5333 223.094 31.743 222.073C30.7383 220.775 29.7783 219.444 28.8013 218.124C27.827 216.809 26.8848 215.455 25.8712 214.171C25.3327 213.489 24.7281 212.935 24.0503 212.396C23.7145 212.129 23.3046 211.855 22.9054 211.698C22.8554 211.678 22.6187 211.611 22.5223 211.587C22.4857 211.555 22.0195 211.332 22.082 211.372C21.7721 211.175 21.2327 211.425 21.2854 211.828C21.3292 212.156 21.2595 212.49 21.2497 212.645C21.2283 213.002 21.2756 213.39 21.3318 213.749C21.4712 214.637 21.8186 215.484 22.2231 216.284C22.9715 217.764 24.0155 219.177 24.9728 220.531C25.9212 221.869 26.9179 223.178 27.919 224.477C28.6638 225.443 29.3952 226.468 30.1828 227.426C29.6175 227.82 29.0621 228.228 28.5164 228.649C28.553 228.677 28.5887 228.704 28.6245 228.732C28.1905 229.102 27.7779 229.499 27.4037 229.934C25.8533 231.733 24.4486 234.168 25.0603 236.617C25.0978 236.767 25.2863 236.846 25.4184 236.762C26.29 236.218 27.0813 235.567 27.8448 234.881C28.2297 234.537 28.6227 234.201 29.0085 233.856C29.2121 233.673 29.4229 233.498 29.6345 233.325C29.6443 233.317 29.6479 233.314 29.6559 233.308C29.822 233.189 29.9828 233.064 30.1444 232.939C30.1945 232.901 30.2427 232.863 30.2927 232.824C30.3856 232.794 30.5633 232.618 30.641 232.565C30.8446 232.428 31.0696 232.325 31.2759 232.192C31.735 231.894 32.1708 231.572 32.6459 231.298C33.0611 231.058 33.5166 230.877 33.9363 230.649C33.8586 230.681 33.8551 230.668 34.0533 230.588C34.0587 230.586 34.062 230.584 34.0664 230.583C34.0789 230.574 34.0944 230.569 34.1069 230.561C34.0989 230.566 34.0896 230.571 34.0816 230.576C34.4754 230.415 34.7963 230.272 35.1098 229.985C35.3107 229.8 35.5036 229.5 35.651 229.199C36.8664 228.733 38.0988 228.31 39.3482 227.968C44.2948 226.613 49.2333 226.64 54.0996 228.11C64.0928 231.129 71.5551 239.032 76.9866 247.773C80.3444 253.176 83.0915 258.924 85.7733 264.683C86.3797 265.986 88.2542 266.315 89.4116 265.637C90.7154 264.875 91.0155 263.284 90.3653 261.997Z" fill="#130000"/>
<path d="M131.696 265.106C130.357 260.614 128.542 256.239 126.583 251.984C124.62 247.72 122.389 243.58 119.877 239.615C117.594 236.01 115.016 232.57 112.154 229.388C110.706 227.595 109.1 225.943 107.426 224.352C103.315 220.439 98.6359 217.187 93.6259 214.534C88.0229 211.568 81.8189 209.411 75.4604 208.33C73.8199 208.346 72.2383 208.51 70.6585 208.955C69.418 209.304 68.1999 209.744 67.0238 210.271C64.6366 211.341 62.3397 212.751 60.559 214.69C58.9345 216.46 57.8397 218.704 57.9772 221.148C58.0549 222.531 58.5273 223.853 59.1623 225.075C59.315 225.369 59.4855 225.671 59.6704 225.967C72.4472 232.199 81.7332 243.662 87.8827 256.338C91.6201 264.042 93.9956 272.294 96.4006 280.484C98.2688 286.847 100.617 293.381 106.613 296.99C110.269 299.189 114.471 300.05 118.651 298.969C122.846 297.885 126.606 295.423 129.152 291.889C134.794 284.056 134.327 273.941 131.696 265.106Z" fill="#6D4333"/>
<path d="M115.674 288.94C112.079 286.125 109.095 282.599 106.421 278.918C103.733 275.217 101.217 271.36 98.9109 267.408C96.3604 263.037 94.0769 258.493 92.272 253.759C90.5083 249.135 89.1919 244.28 88.8606 239.325C88.5784 235.116 89.0954 230.868 90.6833 226.958C87.997 228.131 85.0607 228.558 82.1332 228.136C76.3311 227.3 71.2827 223.287 68.4375 218.26C67.1131 215.921 66.3236 213.405 65.97 210.773C63.9677 211.775 62.0754 213.04 60.559 214.69C58.9345 216.46 57.8397 218.704 57.9772 221.148C58.0549 222.531 58.5273 223.853 59.1623 225.075C59.315 225.369 59.4855 225.671 59.6704 225.967C72.4472 232.199 81.7332 243.662 87.8827 256.338C91.6192 264.041 93.9965 272.294 96.4006 280.484C98.2688 286.847 100.617 293.381 106.613 296.99C110.269 299.189 114.471 300.05 118.651 298.969C121.859 298.139 124.808 296.499 127.158 294.196C122.926 293.493 119.05 291.584 115.674 288.94Z" fill="#4F2D23"/>
<path fill-rule="evenodd" clip-rule="evenodd" d="M114.356 369.523C115.356 365.292 116.776 361.163 118.589 357.214C118.705 356.963 118.595 356.666 118.344 356.55C118.093 356.435 117.796 356.545 117.681 356.796C115.84 360.806 114.398 364.997 113.383 369.292C113.319 369.561 113.485 369.83 113.754 369.894C114.023 369.958 114.292 369.791 114.356 369.523Z" fill="#130000"/>
<path fill-rule="evenodd" clip-rule="evenodd" d="M108.593 368.648C108.854 364.575 109.62 360.536 110.868 356.649C110.952 356.386 110.808 356.104 110.545 356.02C110.282 355.935 110 356.08 109.916 356.343C108.643 360.308 107.862 364.428 107.595 368.584C107.578 368.86 107.787 369.097 108.062 369.115C108.338 369.133 108.576 368.924 108.593 368.648Z" fill="#130000"/>
<path fill-rule="evenodd" clip-rule="evenodd" d="M103.422 364.327C103.554 361.058 104.226 357.813 105.403 354.76C105.502 354.503 105.374 354.213 105.116 354.114C104.859 354.014 104.569 354.143 104.47 354.4C103.254 357.555 102.559 360.907 102.423 364.286C102.411 364.562 102.626 364.795 102.902 364.806C103.178 364.817 103.411 364.603 103.422 364.327Z" fill="#130000"/>
<path fill-rule="evenodd" clip-rule="evenodd" d="M212.561 348.56C214.076 345.838 216.703 343.751 219.695 342.892C219.961 342.816 220.114 342.539 220.038 342.273C219.962 342.008 219.685 341.854 219.42 341.931C216.173 342.863 213.331 345.121 211.687 348.073C211.553 348.314 211.64 348.619 211.881 348.753C212.122 348.888 212.426 348.801 212.561 348.56Z" fill="#130000"/>
<path fill-rule="evenodd" clip-rule="evenodd" d="M216.723 352.363C217.993 349.578 220.276 347.265 223.044 345.959C223.293 345.841 223.4 345.543 223.282 345.293C223.165 345.043 222.867 344.936 222.617 345.054C219.636 346.461 217.182 348.947 215.814 351.947C215.699 352.199 215.81 352.495 216.061 352.61C216.312 352.725 216.609 352.614 216.723 352.363Z" fill="#130000"/>
<path fill-rule="evenodd" clip-rule="evenodd" d="M240.082 364.957C240.903 362.6 242.642 360.57 244.847 359.4C245.09 359.27 245.183 358.967 245.054 358.723C244.924 358.479 244.622 358.387 244.378 358.516C241.951 359.805 240.041 362.033 239.138 364.628C239.048 364.889 239.185 365.174 239.446 365.265C239.707 365.356 239.992 365.218 240.082 364.957Z" fill="#130000"/>
<path fill-rule="evenodd" clip-rule="evenodd" d="M244.153 368.733C245.127 365.861 247.108 363.339 249.667 361.712C249.9 361.564 249.969 361.255 249.821 361.022C249.672 360.788 249.364 360.72 249.131 360.868C246.379 362.617 244.254 365.323 243.206 368.411C243.117 368.673 243.257 368.957 243.519 369.046C243.78 369.134 244.064 368.994 244.153 368.733Z" fill="#130000"/>
<path fill-rule="evenodd" clip-rule="evenodd" d="M251.765 370.302C252.149 368.107 253.366 366.065 255.112 364.682C255.329 364.511 255.365 364.197 255.194 363.98C255.022 363.763 254.708 363.727 254.492 363.898C252.554 365.433 251.206 367.692 250.78 370.13C250.733 370.402 250.914 370.661 251.186 370.709C251.458 370.756 251.717 370.574 251.765 370.302Z" fill="#130000"/>
<path fill-rule="evenodd" clip-rule="evenodd" d="M46.1271 304.126C46.391 304.208 46.5391 304.487 46.4578 304.751C45.372 308.278 43.6591 311.565 41.9506 314.771C40.5711 317.359 39.1305 320.017 37.1588 322.283C36.1473 323.445 34.4812 324.738 32.7208 325.812C30.9628 326.884 29.05 327.774 27.5297 328.087C27.2592 328.143 26.9948 327.969 26.939 327.698C26.8832 327.428 27.0572 327.164 27.3277 327.108C28.6848 326.828 30.4835 326.005 32.2001 324.958C33.9143 323.913 35.4859 322.681 36.4044 321.626C38.2906 319.459 39.6827 316.9 41.0681 314.301M46.1271 304.126C45.8632 304.045 45.5834 304.193 45.5021 304.457ZM45.5021 304.457C44.4482 307.88 42.78 311.088 41.0681 314.301Z" fill="#130000"/>
<path fill-rule="evenodd" clip-rule="evenodd" d="M40.5559 297.131C40.7985 296.999 41.1021 297.088 41.2341 297.331C42.0381 298.808 42.9225 300.241 43.882 301.622C44.6604 302.742 45.4679 303.784 46.519 304.495C47.8058 305.365 49.3247 305.672 50.9563 305.667C52.5925 305.662 54.3038 305.345 55.9535 304.998C56.2237 304.942 56.4888 305.115 56.5456 305.385C56.6023 305.655 56.4293 305.92 56.159 305.977C54.5071 306.324 52.7074 306.662 50.9591 306.667C49.2063 306.672 47.4674 306.343 45.9589 305.323M40.5559 297.131C40.3134 297.263 40.2238 297.566 40.3558 297.809ZM40.3558 297.809C41.1771 299.318 42.0806 300.782 43.0608 302.193ZM43.0608 302.193C43.8452 303.321 44.7417 304.5 45.9589 305.323Z" fill="#130000"/>
<path d="M52.3849 277.154C52.4189 277.037 52.443 276.918 52.4787 276.801C52.8207 275.683 53.2931 274.489 54.004 273.504C53.7138 272.888 53.3244 272.263 52.8368 271.669C50.9534 269.371 48.3555 268.387 47.0356 269.471C45.7147 270.555 46.1711 273.297 48.0554 275.594C49.2316 277.028 50.6854 277.951 51.933 278.178C52.075 277.832 52.2242 277.49 52.3849 277.154Z" fill="#130000"/>
<path fill-rule="evenodd" clip-rule="evenodd" d="M57.7462 269.084C57.8619 269.335 57.7525 269.632 57.5017 269.748C56.8038 270.07 56.2497 270.687 55.7102 271.4C52.9949 274.991 51.4873 279.485 51.4864 283.988C51.4863 284.264 51.2624 284.488 50.9863 284.488C50.7102 284.488 50.4863 284.264 50.4864 283.987C50.4873 279.267 52.066 274.562 54.9126 270.797C55.4626 270.07 56.1428 269.274 57.0827 268.84C57.3334 268.724 57.6305 268.833 57.7462 269.084Z" fill="#130000"/>
<path d="M12.8684 312.984C12.2406 312.114 11.1306 311.882 10.1402 312.224C9.23104 312.54 8.44694 313.173 7.67178 313.727C6.87607 314.295 6.09108 314.879 5.31056 315.469C4.38625 316.168 3.42266 316.848 2.56086 317.622C2.1447 317.998 1.73926 318.383 1.34364 318.779C1.13109 318.991 0.857821 319.209 0.70511 319.469C0.572046 319.697 0.493457 319.987 0.403259 320.234C0.282698 320.563 0.439874 320.824 0.682783 320.974C0.678318 321.143 0.697965 321.313 0.765837 321.48C1.26862 322.816 2.0036 324.014 3.00828 325.036C4.01832 326.065 5.22125 326.721 6.56351 327.215C7.60033 327.596 8.5425 326.624 8.59608 325.665C8.6452 324.784 8.70771 323.866 8.94526 323.013C9.17656 322.186 9.69721 321.439 10.2098 320.763C11.3556 319.252 12.6889 317.828 13.1596 315.933C13.4007 314.964 13.4802 313.832 12.8684 312.984Z" fill="#130000"/>
<path d="M22.4803 322.81C21.7123 322.81 21.7105 324.004 22.4803 324.004C23.2483 324.004 23.2501 322.81 22.4803 322.81Z" fill="#130000"/>
<path d="M28.9594 315.837C28.9219 315.702 28.8531 315.584 28.754 315.484C28.6995 315.443 28.6459 315.401 28.5923 315.359C28.4673 315.287 28.3324 315.251 28.1887 315.25C28.0788 315.246 27.9752 315.269 27.8806 315.319C27.7814 315.351 27.6948 315.406 27.6225 315.484C27.5448 315.557 27.4894 315.642 27.4573 315.742C27.4072 315.837 27.3849 315.94 27.3885 316.05C27.3983 316.12 27.4081 316.191 27.4171 316.263C27.4555 316.398 27.5242 316.516 27.6225 316.615L27.785 316.741C27.91 316.814 28.044 316.85 28.1887 316.85C28.2985 316.855 28.4012 316.831 28.4968 316.782C28.5959 316.749 28.6816 316.694 28.754 316.615C28.8317 316.543 28.887 316.457 28.9192 316.358C28.9692 316.263 28.9924 316.16 28.9879 316.05C28.9781 315.979 28.9692 315.908 28.9594 315.837Z" fill="#130000"/>
<path d="M32.8316 309.941C32.8057 309.847 32.7575 309.765 32.6887 309.696L32.5762 309.608C32.4896 309.558 32.3958 309.533 32.2949 309.532C32.2181 309.529 32.1476 309.546 32.0815 309.58C32.0127 309.603 31.9529 309.641 31.902 309.696C31.8475 309.746 31.8091 309.806 31.7868 309.874C31.7519 309.94 31.7359 310.012 31.7385 310.089C31.7457 310.139 31.7528 310.187 31.7591 310.237C31.7859 310.332 31.8332 310.413 31.902 310.482L32.0145 310.57C32.1011 310.62 32.1949 310.645 32.2949 310.645C32.3717 310.648 32.4432 310.632 32.5101 310.597C32.5789 310.575 32.6387 310.536 32.6887 310.482C32.7432 310.432 32.7807 310.372 32.8039 310.303C32.8388 310.237 32.854 310.166 32.8513 310.089C32.845 310.04 32.8388 309.99 32.8316 309.941Z" fill="#130000"/>
<path d="M21.8561 318.635C21.8203 318.508 21.7569 318.398 21.6641 318.305C21.614 318.266 21.5631 318.227 21.5131 318.188C21.3961 318.121 21.2711 318.087 21.1363 318.086C21.0336 318.083 20.938 318.103 20.8487 318.151C20.7567 318.18 20.6763 318.233 20.6085 318.305C20.5361 318.372 20.4843 318.453 20.4549 318.545C20.4075 318.634 20.3861 318.73 20.3897 318.833C20.3995 318.899 20.4075 318.966 20.4165 319.031C20.4522 319.158 20.5165 319.268 20.6085 319.36C20.6594 319.4 20.7094 319.438 20.7594 319.478C20.8764 319.545 21.0014 319.579 21.1363 319.58C21.239 319.584 21.3354 319.562 21.4238 319.515C21.5167 319.485 21.5962 319.434 21.6641 319.36C21.7364 319.293 21.7882 319.213 21.8186 319.12C21.865 319.032 21.8864 318.936 21.8829 318.833C21.8739 318.766 21.865 318.7 21.8561 318.635Z" fill="#130000"/>
<path d="M26.8375 310.601C26.8089 310.511 26.7598 310.435 26.6892 310.369C26.641 310.332 26.5928 310.294 26.5437 310.258C26.432 310.192 26.3124 310.16 26.1829 310.159H26.1802C26.0507 310.159 25.9293 310.192 25.8176 310.257L25.6721 310.369C25.5836 310.46 25.522 310.565 25.4881 310.687C25.4586 310.781 25.4542 310.878 25.4756 310.973C25.4792 311.067 25.5077 311.157 25.5604 311.24C25.6051 311.324 25.6667 311.391 25.7453 311.441C25.8141 311.504 25.8953 311.547 25.9891 311.569C26.1159 311.603 26.2436 311.603 26.3704 311.569L26.3731 311.569C26.466 311.546 26.5472 311.503 26.6169 311.44C26.6946 311.39 26.7562 311.323 26.8009 311.239C26.8259 311.182 26.85 311.124 26.8741 311.067C26.9036 310.973 26.908 310.877 26.8866 310.781C26.8866 310.717 26.8705 310.656 26.8375 310.601Z" fill="#130000"/>
<path d="M30.1239 303.924C29.1451 303.924 29.1433 305.445 30.1239 305.445C31.1018 305.445 31.1036 303.924 30.1239 303.924Z" fill="#130000"/>
<path d="M16.0521 324.443C16.0521 324.372 16.0343 324.308 15.9986 324.247C15.9682 324.152 15.9146 324.068 15.8396 323.998L15.6824 323.877L15.4976 323.799C15.3949 323.767 15.2922 323.762 15.1895 323.785C15.0859 323.791 14.9903 323.821 14.9019 323.877C14.8733 323.894 14.8447 323.91 14.8162 323.927C14.6956 323.997 14.6 324.093 14.5286 324.213C14.4563 324.339 14.4196 324.473 14.4196 324.617C14.4295 324.689 14.4384 324.759 14.4482 324.831C14.4866 324.967 14.5545 325.085 14.6545 325.184C14.7269 325.263 14.8126 325.318 14.9117 325.35C15.0073 325.399 15.11 325.423 15.2198 325.419C15.3645 325.418 15.4993 325.382 15.6244 325.31C15.744 325.238 15.8405 325.142 15.911 325.021L15.9602 324.936C15.9861 324.874 16.012 324.813 16.0378 324.751C16.0709 324.648 16.0745 324.545 16.0521 324.443Z" fill="#130000"/>
<path d="M30.3552 321.48C30.332 321.409 30.2927 321.348 30.2373 321.296C30.1989 321.266 30.1605 321.237 30.1221 321.207L29.9855 321.149C29.9096 321.126 29.8345 321.123 29.7586 321.139C29.6827 321.142 29.6122 321.165 29.5461 321.207L29.5175 321.225C29.5131 321.228 29.5077 321.232 29.5032 321.234L29.4997 321.237C29.4604 321.267 29.4202 321.298 29.3809 321.328C29.3184 321.385 29.2451 321.504 29.2291 321.588C29.2246 321.609 29.221 321.628 29.2175 321.648C29.1916 321.745 29.1916 321.841 29.2175 321.938C29.2434 322.029 29.2898 322.109 29.3568 322.177C29.4246 322.244 29.5041 322.291 29.5961 322.317C29.6926 322.342 29.789 322.342 29.8855 322.317C29.9051 322.313 29.9256 322.309 29.9453 322.306C30.0346 322.287 30.1418 322.216 30.2052 322.154C30.2418 322.117 30.2721 322.074 30.2998 322.03C30.3025 322.025 30.3052 322.021 30.3079 322.017L30.3266 321.987L30.3838 321.851C30.4079 321.775 30.4106 321.699 30.3936 321.623C30.3936 321.573 30.3811 321.525 30.3552 321.48Z" fill="#130000"/>
<path d="M34.5811 313.636C33.9524 313.636 33.9515 314.614 34.5811 314.614C35.2098 314.614 35.2107 313.636 34.5811 313.636Z" fill="#130000"/>
<path d="M43.3437 254.996C42.3997 255.076 41.6023 255.519 40.8467 256.057C40.1636 256.543 39.5223 257.056 38.9097 257.628C38.4275 258.079 37.9318 258.521 37.4657 258.988C36.8521 259.602 36.2163 260.207 35.7599 260.952C35.1669 261.922 35.325 263.399 36.177 264.182C37.0272 264.963 38.3828 265.253 39.4045 264.599C40.6779 263.785 41.6701 262.51 42.6739 261.394C43.2339 260.77 43.7447 260.124 44.218 259.431C44.7369 258.67 45.1941 257.846 45.2539 256.908C45.3164 255.937 44.3269 254.913 43.3437 254.996Z" fill="#130000"/>
<path d="M71.7113 272.98C74.6137 275.427 74.3251 280.55 71.0639 284.422C67.8038 288.292 62.8072 289.446 59.9041 286.998C57.0017 284.55 57.2915 279.428 60.5516 275.557C63.8123 271.686 68.8089 270.532 71.7113 272.98Z" fill="#FA9F9F"/>
<path d="M57.6441 221.465C57.5851 220.252 57.5289 219.038 57.4744 217.825C57.3628 215.339 57.2493 212.852 57.1449 210.367C57.0404 207.878 57.0556 205.345 56.7028 202.875C56.3643 200.51 56.016 198.049 54.9506 195.887C54.7944 195.571 54.2326 195.548 54.0835 195.887C53.1145 198.098 52.9091 200.531 52.6662 202.908C52.4153 205.367 52.618 207.901 52.6859 210.367C52.7528 212.795 52.827 215.224 52.9207 217.651C52.9707 218.922 53.0217 220.194 53.0761 221.465C53.1315 222.78 52.9181 224.537 53.6843 225.652C54.5479 226.908 56.5099 227.121 57.3279 225.652C58.029 224.389 57.711 222.858 57.6441 221.465Z" fill="#130000"/>
<path d="M69.1519 178.847C65.3806 176.162 60.5813 178.648 57.737 181.494C56.1197 183.112 54.6854 185.03 53.6093 187.05C53.2905 187.647 53.0074 188.266 52.743 188.891C51.6115 187.165 50.2818 185.568 48.7618 184.165C46.0059 181.62 41.9568 178.68 38.0738 180.576C34.4007 182.369 34.0498 187.496 34.8973 190.983C35.8019 194.707 38.2015 197.919 40.8914 200.561C44.0894 203.705 47.7714 205.758 51.875 207.471C52.0036 207.525 52.1438 207.549 52.2876 207.554C53.0404 208.02 53.9862 208.006 54.7962 207.604C62.1415 203.957 68.0954 197.493 71.0961 189.855C72.5357 186.191 72.6884 181.364 69.1519 178.847Z" fill="#FA9F9F"/>
<path d="M29.23 192.942C25.6462 192.079 22.8366 195.344 21.5801 198.292C20.8648 199.969 20.3736 201.813 20.178 203.626C20.12 204.162 20.095 204.703 20.0851 205.244C18.7366 204.304 17.2792 203.52 15.7387 202.935C12.9461 201.873 9.08011 200.903 6.77337 203.459C4.59165 205.877 5.85442 209.769 7.51549 212.095C9.28998 214.579 12.0182 216.239 14.7903 217.393C18.0874 218.765 21.4185 219.188 24.9603 219.235C25.071 219.236 25.1818 219.211 25.2898 219.173C25.9855 219.293 26.6803 219.003 27.159 218.464C31.5054 213.585 33.9863 207.037 33.9363 200.501C33.9122 197.364 32.5914 193.75 29.23 192.942Z" fill="#FA9F9F"/>
<path d="M65.1448 196.213C62.8702 197.16 60.4768 197.827 58.0397 198.186C55.6588 198.538 53.236 198.621 50.8444 198.317C48.5868 198.027 46.3702 197.422 44.3412 196.375C42.3917 195.369 40.6788 193.951 39.3803 192.179C37.9818 190.27 37.1549 188.009 36.8164 185.676C36.6164 184.302 36.594 182.928 36.6851 181.56C34.331 183.831 34.1721 188.003 34.8964 190.984C35.801 194.707 38.2006 197.92 40.8905 200.563C44.0885 203.706 47.7705 205.758 51.875 207.471C52.0027 207.524 52.1429 207.549 52.2876 207.554C53.0404 208.02 53.9852 208.007 54.7952 207.605C60.6706 204.688 65.6502 199.966 68.9456 194.286C67.7284 195.018 66.4611 195.665 65.1448 196.213Z" fill="#E18A8A"/>
<path d="M29.23 192.942C28.6718 192.808 28.136 192.783 27.618 192.832C27.4814 195.013 27.2197 197.186 26.8214 199.328C26.1025 203.199 24.9317 207.197 22.6339 210.445C21.6417 211.847 20.4281 213.107 18.9438 213.991C17.1015 215.088 15.0778 215.425 12.9568 215.121C11.5833 214.925 10.2429 214.46 8.99438 213.791C10.6438 215.369 12.7041 216.525 14.7903 217.393C18.0874 218.765 21.4185 219.188 24.9603 219.235C25.071 219.236 25.1818 219.211 25.2898 219.173C25.9855 219.293 26.6803 219.003 27.159 218.464C31.5054 213.585 33.9863 207.037 33.9363 200.501C33.9122 197.364 32.5914 193.75 29.23 192.942Z" fill="#E18A8A"/>
<path fill-rule="evenodd" clip-rule="evenodd" d="M223.519 353.622C223.898 351.529 225.237 349.624 227.075 348.56C227.314 348.422 227.396 348.116 227.258 347.877C227.12 347.638 226.814 347.556 226.575 347.694C224.482 348.905 222.966 351.062 222.535 353.444C222.486 353.716 222.667 353.976 222.938 354.025C223.21 354.074 223.47 353.894 223.519 353.622Z" fill="#130000"/>
<path fill-rule="evenodd" clip-rule="evenodd" d="M236.018 237.362C236.253 237.507 236.327 237.815 236.182 238.05C225.071 256.147 226.026 280.928 238.495 298.115C240.61 301.03 243.015 303.738 245.435 306.464C246.387 307.536 247.342 308.612 248.282 309.703C251.595 313.549 254.702 317.569 256.74 322.271C256.85 322.525 256.733 322.819 256.48 322.929C256.227 323.039 255.932 322.922 255.822 322.669C253.847 318.11 250.822 314.183 247.524 310.356C246.606 309.29 245.664 308.229 244.719 307.164C242.287 304.425 239.832 301.659 237.686 298.703C224.979 281.188 224.007 255.968 235.33 237.527C235.475 237.291 235.783 237.218 236.018 237.362Z" fill="#130000"/>
<path fill-rule="evenodd" clip-rule="evenodd" d="M302.179 276.568C302.452 276.605 302.704 276.413 302.741 276.139C305.294 257.363 305.617 245.682 303.759 237.043C301.893 228.368 297.837 222.8 291.767 216.235C291.58 216.032 291.264 216.02 291.061 216.207C290.858 216.395 290.846 216.711 291.033 216.914C297.052 223.424 300.97 228.834 302.781 237.253C304.6 245.709 304.302 257.24 301.751 276.005C301.713 276.278 301.905 276.53 302.179 276.568Z" fill="#130000"/>
<path fill-rule="evenodd" clip-rule="evenodd" d="M274.831 206.639C278.274 208.528 281.651 210.539 284.951 212.669C285.183 212.819 285.492 212.752 285.642 212.52C285.791 212.288 285.725 211.978 285.493 211.829C282.172 209.685 278.776 207.663 275.311 205.762C275.069 205.629 274.765 205.718 274.633 205.96C274.5 206.202 274.589 206.506 274.831 206.639Z" fill="#130000"/>
<path d="M255.966 78.4263C256.379 76.7813 256.543 75.1541 256.492 73.568C256.188 64.2749 248.439 56.3587 239.398 54.1016C230.633 51.9141 221.216 54.854 213.916 60.0072C214.166 58.8482 214.309 57.6643 214.371 56.4964C214.601 52.1036 213.566 47.5455 211.406 43.7103C206.293 34.6307 195.051 30.2835 185.04 32.445C176.641 34.2599 169.983 40.3755 166.609 48.0325C165.805 49.2692 165.163 50.5756 164.704 52.0026C164.15 53.7236 163.848 55.5474 163.571 57.3301C163.27 59.2593 163.605 61.4012 163.886 63.317C164.1 64.7735 164.395 66.2211 164.74 67.6606C165.855 74.8154 168.391 81.9148 171.072 88.3316C171.283 88.8346 171.501 89.3368 171.724 89.8381C174.127 96.4282 176.746 102.943 179.586 109.355C180.416 111.23 181.265 113.098 182.131 114.956C183.097 117.03 184.119 119.922 187.029 119.183C188.376 118.841 189.712 118.318 191.035 117.801C191.108 117.792 191.182 117.792 191.256 117.776C199.048 116.212 206.716 114.042 214.198 111.356C222.666 109.187 230.658 104.968 237.748 99.9855C245.169 94.7697 253.628 87.7436 255.966 78.4263Z" fill="#95B8A0"/>
<path d="M200.084 33.8732C199.959 34.009 199.827 34.1413 199.711 34.2807C198.611 35.5987 197.561 37.1062 197.102 38.7771C196.629 40.5008 196.436 42.3934 196.606 44.177C196.952 47.8067 198.151 51.6267 200.53 54.4459C203.156 57.5591 207.466 57.8146 210.966 56.1928C212.304 55.5718 213.408 54.6541 214.329 53.5666C214.078 50.1228 213.089 46.6975 211.406 43.7103C208.854 39.179 204.775 35.8266 200.084 33.8732Z" fill="#FDFDFD"/>
<path d="M165.467 64.2956C166.096 67.7412 168.072 71.1582 171.091 73.024C173.501 74.5127 176.316 74.5994 178.828 73.687C179.038 73.6888 179.247 73.6879 179.459 73.6745C182.41 73.494 184.981 72.1063 186.989 70.06C187.824 69.6088 188.618 69.0717 189.342 68.4266C194.538 63.7925 194.915 55.3295 190.56 50.0664C186.389 45.0267 178.541 44.0929 172.929 47.0667C172.491 47.299 172.076 47.5599 171.673 47.8343C170.959 48.2855 170.458 48.6563 169.99 49.1943C166.036 52.9598 164.492 58.9467 165.467 64.2956Z" fill="#FDFDFD"/>
<path d="M214.473 67.2451C211.993 65.7341 208.976 65.2221 206.154 65.9235C204.818 65.8922 203.487 66.0549 202.225 66.4329C201.027 66.7921 199.9 67.2639 198.855 67.867C198.536 67.9903 198.239 68.1449 197.992 68.3451C197.867 68.4461 197.751 68.5596 197.632 68.6668C196.927 69.185 196.266 69.7748 195.663 70.4593C193.943 72.4082 192.598 74.7904 192.09 77.3603C191.092 82.3965 192.658 87.6006 196.085 91.3956C199.91 95.6302 206.092 97.5157 211.424 95.1924C216.216 93.105 219.397 87.7293 220.379 82.77C220.959 79.8373 220.991 76.666 219.887 73.8459C218.816 71.1071 217.005 68.7883 214.473 67.2451Z" fill="#FDFDFD"/>
<path d="M239.398 54.1016C235.265 53.0704 230.989 53.1893 226.857 54.132C225.751 57.0807 225.421 60.294 226.157 63.4448C226.675 65.6662 227.802 67.7723 229.333 69.5246C230.122 70.6845 231.09 71.7335 232.271 72.6155C234.266 74.1059 236.873 75.0692 239.387 74.8824C241.653 74.7136 243.681 73.7691 245.49 72.4743C247.38 71.4109 249.049 69.9097 250.338 68.0985C251.202 66.8832 251.825 65.55 252.239 64.1543C252.403 63.7727 252.549 63.384 252.686 62.9926C249.513 58.6686 244.677 55.4196 239.398 54.1016Z" fill="#FDFDFD"/>
<path d="M252.788 85.5928C252.218 84.701 251.527 83.8932 250.742 83.1766C249.827 81.7754 248.658 80.5656 247.259 79.5451C245.282 78.1038 242.613 77.2281 240.157 77.4667C237.064 77.7687 234.565 79.3199 232.189 81.2205C229.996 82.9737 228.156 85.1558 227.227 87.8365C226.317 90.4636 226.59 93.5161 227.607 96.0681C228.708 98.8319 230.56 101.348 232.915 103.161C234.567 102.148 236.18 101.087 237.748 99.9855C243.13 96.203 249.047 91.4626 252.788 85.5928Z" fill="#FDFDFD"/>
<path d="M219.278 109.793C218.929 107.785 218.083 105.891 216.674 104.374C215.445 103.05 213.789 102.159 212.048 101.653C209.719 100.13 206.877 99.4056 204.012 99.6844C199.314 100.141 194.55 102.68 191.368 106.171C189.578 108.136 188.411 110.428 188.143 113.089C187.993 114.57 188.209 116.051 188.643 117.47C188.621 117.877 188.615 118.286 188.619 118.699C189.428 118.423 190.235 118.113 191.035 117.801C191.108 117.792 191.182 117.792 191.256 117.776C199.048 116.212 206.716 114.042 214.198 111.356C215.911 110.917 217.606 110.389 219.278 109.793Z" fill="#FDFDFD"/>
<path d="M181.42 105.335C181.914 105.156 182.399 104.944 182.873 104.69C186.589 102.701 189.944 98.3538 189.637 93.9825C189.479 91.7432 188.636 89.7541 187.433 87.9652C187.112 86.9465 186.687 85.9565 186.119 85.0218C184.871 82.971 183.049 81.2045 180.673 80.5852C179.703 80.3332 178.731 80.2769 177.772 80.3609C177.515 80.3279 177.256 80.3037 176.991 80.3011C174.616 80.2787 172.404 81.4815 170.775 83.148C170.331 83.6028 169.94 84.0907 169.572 84.5929C170.063 85.8582 170.563 87.1101 171.073 88.3307C171.284 88.8346 171.501 89.3368 171.725 89.8372C173.768 95.4408 175.977 100.985 178.336 106.464C179.419 106.303 180.452 105.907 181.42 105.335Z" fill="#FDFDFD"/>
<path d="M186.789 126.734C186.992 125.112 187.146 123.474 187.411 121.86C187.546 121.045 187.679 120.231 187.812 119.417C187.951 118.574 188.172 117.738 188.295 116.898C188.401 116.19 188.248 115.404 187.553 115.027C186.933 114.689 186.068 114.702 185.554 115.245C185.224 115.592 184.902 115.946 184.584 116.307C184.376 116.132 184.09 116.055 183.817 116.21C182.659 116.868 181.536 117.575 180.409 118.286C179.876 118.621 179.351 118.998 178.797 119.295C178.181 119.623 177.532 119.892 176.886 120.152C176.174 120.437 176.094 121.521 176.593 122.014C177.207 122.621 177.94 123.138 178.619 123.67C179.27 124.182 179.93 124.678 180.611 125.151C181.965 126.097 183.35 127 184.759 127.863C185.698 128.439 186.666 127.702 186.789 126.734Z" fill="#95B8A0"/>
<path fill-rule="evenodd" clip-rule="evenodd" d="M188.106 118.478C186.388 117.8 184.755 116.906 183.258 115.824C183.034 115.662 182.722 115.712 182.56 115.936C182.398 116.16 182.449 116.473 182.672 116.635C184.237 117.766 185.944 118.7 187.74 119.408C187.997 119.509 188.287 119.383 188.388 119.126C188.489 118.869 188.363 118.579 188.106 118.478Z" fill="#130000"/>
<path fill-rule="evenodd" clip-rule="evenodd" d="M182.013 117.03C181.966 117.303 182.148 117.561 182.421 117.608C184.385 117.947 186.242 118.903 187.661 120.306C187.858 120.5 188.174 120.498 188.368 120.302C188.562 120.105 188.56 119.788 188.364 119.594C186.8 118.048 184.756 116.996 182.59 116.623C182.318 116.576 182.059 116.758 182.013 117.03Z" fill="#130000"/>
<path d="M202.11 13.3036C201.614 11.6809 200.917 10.202 200.054 8.87061C195 1.06706 184.28 -1.71015 175.373 1.02596C166.736 3.67897 160.187 11.0607 156.593 19.2441C156.209 18.1226 155.721 17.0343 155.171 16.0031C153.103 12.1214 149.866 8.75177 146.036 6.58218C136.973 1.44683 125.102 3.52795 117.643 10.5505C111.385 16.4427 108.837 25.1184 109.898 33.4197C109.846 34.894 109.971 36.3443 110.313 37.8044C110.727 39.5647 111.409 41.2822 112.091 42.9523C112.829 44.76 114.221 46.422 115.449 47.9169C116.383 49.0544 117.384 50.1419 118.421 51.1963C123.068 56.7499 128.901 61.5198 134.509 65.6311C134.948 65.9536 135.394 66.2709 135.843 66.5845C141.301 70.988 146.905 75.2155 152.646 79.241C154.324 80.4179 156.013 81.5795 157.715 82.7242C159.612 84.0011 161.978 85.9491 164.09 83.8143C165.067 82.8251 165.941 81.6876 166.808 80.5617C166.867 80.5153 166.929 80.4768 166.984 80.4268C172.85 75.0627 178.3 69.2438 183.323 63.0781C189.456 56.8473 194.126 49.1063 197.627 41.1785C201.294 32.8773 204.914 22.4913 202.11 13.3036Z" fill="#FE4662"/>
<path d="M116.494 44.0376C116.626 43.9849 116.908 43.8696 116.871 43.8839C117.243 43.74 117.62 43.6096 118.001 43.4889C119.763 42.934 121.593 42.6418 123.394 42.2433C126.947 41.457 130.24 39.9906 132.719 37.25C135.067 34.6551 136.513 31.4472 136.909 27.973C137.656 21.4437 133.554 14.8688 127.577 12.3167C126.663 11.9263 125.751 11.6421 124.791 11.3928C124.419 11.2963 123.982 11.223 123.634 11.0774C123.177 10.887 123.158 10.8647 122.881 10.5564C123.066 10.7619 122.545 9.95504 122.636 10.1713C122.511 9.87373 122.423 9.42873 122.405 9.26967C122.322 8.53069 122.403 7.77652 122.571 7.05541C122.579 7.01877 122.594 6.98303 122.603 6.94639C121.212 7.71665 119.894 8.61737 118.674 9.6405C118.683 10.9076 119 12.1425 119.788 13.2139C121.052 14.9331 122.918 15.3379 124.826 15.9875C125.428 16.1922 125.855 16.3905 126.53 16.781C127.197 17.1661 127.753 17.5638 128.17 17.9266C128.728 18.4127 129.245 18.9435 129.722 19.5109C130.052 19.904 129.967 19.7924 130.26 20.2159C130.493 20.5546 130.711 20.9031 130.914 21.2605C131.588 22.4463 132.044 23.7339 132.239 25.0197C132.434 26.3172 132.307 27.8461 131.98 29.0935C131.872 29.5037 131.746 29.9076 131.6 30.3052C131.461 30.6876 131.474 30.6635 131.346 30.9182C130.962 31.6813 130.548 32.4078 130.06 33.1101C129.914 33.3183 129.839 33.4086 129.558 33.7285C129.307 34.0144 129.044 34.2914 128.769 34.5559C128.111 35.1903 127.869 35.3798 127.156 35.8301C125.693 36.7568 124.186 37.2045 122.44 37.5967C120.538 38.0247 118.598 38.3071 116.732 38.8844C115.212 39.3544 113.723 39.9951 112.334 40.7716C112.032 40.9405 111.733 41.1192 111.437 41.3033C111.65 41.8573 111.868 42.4081 112.091 42.9523C112.467 43.8726 113.013 44.7551 113.62 45.5978C113.842 45.4566 114.076 45.3109 114.343 45.1519C114.922 44.8069 115.517 44.4897 116.127 44.2029C116.092 44.2199 116.363 44.0975 116.494 44.0376Z" fill="#E43254"/>
<path d="M137.089 56.5218C143.036 52.0093 147.446 45.6819 149.593 38.52C151.623 31.753 151.712 23.7841 148.105 17.513C147.136 15.826 145.874 14.2381 144.364 13.0014C142.66 11.6056 140.759 10.6987 138.801 9.72557C137.213 8.93744 135.431 8.29675 134.408 6.859C133.782 5.97973 133.347 4.85561 133.429 3.77976C132.657 3.82712 131.886 3.90843 131.12 4.02728C130.486 6.01636 131.177 8.50049 132.421 10.1786C133.692 11.8925 135.42 13.0228 137.285 13.9959C138.906 14.8404 140.342 15.5892 141.522 16.7169C142.762 17.9008 143.479 18.949 144.276 20.611C144.33 20.7227 144.381 20.8344 144.432 20.9479C144.431 20.9524 144.624 21.4027 144.623 21.3992C144.776 21.7888 144.918 22.1819 145.047 22.5796C145.319 23.4231 145.535 24.2836 145.702 25.1539C146.269 28.1188 146.084 31.795 145.384 34.8796C144.556 38.5289 143.353 41.3812 141.354 44.5292C139.578 47.3279 137.119 50.0792 134.444 52.1183C133.151 53.103 131.304 54.2128 129.715 55.1216C128.124 56.0304 126.523 56.9293 125.016 57.9712C126.355 59.1838 127.727 60.3534 129.117 61.4793C131.768 59.8173 134.586 58.4207 137.089 56.5218Z" fill="#E43254"/>
<path d="M154.711 22.947C155.382 24.0926 156.167 25.1711 157.011 26.1942C157.756 27.0968 158.672 27.8786 159.221 28.8276C160.348 30.7711 159.001 33.4634 158.296 35.474C157.547 37.6078 157.1 39.8793 157.051 42.1445C156.945 47.0046 159.135 51.7253 163.942 53.4213C168.792 55.1325 174.172 52.6377 177.931 49.6424C181.772 46.5828 184.87 42.3607 186.855 37.8839C187.906 35.5115 188.727 33.0649 189.194 30.5075C189.701 27.7169 189.73 24.9191 189.935 22.1008C190.033 20.739 190.129 19.8624 190.545 18.4747C190.624 18.2066 190.717 17.9439 190.81 17.6794C190.813 17.6732 190.836 17.6133 190.858 17.5543C190.899 17.4632 190.973 17.2961 190.989 17.2621C191.227 16.7617 191.497 16.2756 191.793 15.8065C191.952 15.5545 192.12 15.3079 192.293 15.0657C192.341 15.0005 192.39 14.9362 192.438 14.8709C192.451 14.8548 192.469 14.8343 192.493 14.8066C192.883 14.3464 193.281 13.8978 193.709 13.4716C194.079 13.1026 194.463 12.7496 194.859 12.4091C195.063 12.234 195.271 12.0633 195.482 11.8944C195.523 11.8667 195.887 11.5871 195.965 11.5308C197.282 10.5755 198.68 9.73915 200.112 8.968C200.092 8.93583 200.075 8.90188 200.054 8.87061C199.038 7.30239 197.786 5.94774 196.374 4.78877C193.548 6.38558 190.878 8.29782 188.801 10.7498C187.129 12.7237 185.819 14.9621 185.158 17.4793C184.436 20.2315 184.472 23.0962 184.332 25.9155C184.21 28.3603 183.925 30.1751 183.153 32.72C182.992 33.2508 182.815 33.7762 182.627 34.298C182.534 34.559 182.439 34.819 182.339 35.0772C182.289 35.2068 182.238 35.3355 182.187 35.4641C182.166 35.5151 182.154 35.5481 182.145 35.5705C182.139 35.5821 182.138 35.5857 182.132 35.6009C181.656 36.7044 181.11 37.7803 180.508 38.8195C178.282 42.6609 175.243 46.1807 171.226 48.1332C170.728 48.3753 170.62 48.4245 169.966 48.6407C169.431 48.8176 168.889 48.9454 168.338 49.0607C168.201 49.0884 168.165 49.1 168.157 49.1045C168.146 49.1027 168.107 49.1027 167.975 49.1107C167.726 49.1268 167.477 49.1447 167.227 49.1474C166.98 49.1492 166.734 49.1349 166.488 49.1232C166.442 49.1215 166.409 49.1197 166.377 49.1179C166.222 49.092 166.067 49.0607 165.914 49.0259C165.674 48.9696 165.443 48.8954 165.208 48.8239C164.849 48.7149 165.199 48.8614 164.864 48.6818C164.641 48.5621 164.42 48.4432 164.205 48.3056C164.101 48.2386 163.997 48.168 163.897 48.0947C163.894 48.093 163.893 48.093 163.89 48.0903C163.877 48.0769 163.862 48.0626 163.835 48.0367C163.641 47.858 163.448 47.6819 163.269 47.4871C163.217 47.4308 163.061 47.2325 163.019 47.1851C162.766 46.8187 162.55 46.4336 162.35 46.0342C162.342 46.019 162.339 46.0109 162.333 45.9993C162.303 45.9225 162.273 45.8456 162.247 45.7679C162.161 45.5177 162.079 45.2675 162.011 45.011C161.951 44.7894 161.899 44.566 161.855 44.3409C161.832 44.2274 161.814 44.113 161.792 43.9995C161.785 43.9656 161.782 43.9495 161.778 43.9307L161.777 43.9262C161.659 42.8933 161.668 41.8487 161.765 40.8157C161.8 40.4404 161.809 40.3404 161.921 39.7417C162.016 39.2261 162.133 38.7141 162.269 38.2065C162.58 37.0458 163.023 35.9297 163.394 34.7886C164.288 32.0409 164.677 28.9929 163.083 26.4105C161.824 24.3714 159.876 22.8684 158.572 20.8543C158.013 19.9911 157.542 19.0868 157.093 18.1673C156.923 18.5256 156.752 18.8831 156.593 19.2441C156.209 18.1226 155.721 17.0343 155.171 16.0031C154.337 14.4375 153.305 12.9623 152.129 11.6085C152.114 11.7425 152.096 11.8748 152.086 12.0097C152.001 13.1553 152.201 14.2821 152.221 15.4214C152.267 18.0726 153.389 20.6881 154.711 22.947Z" fill="#E43254"/>
<path d="M166.823 12.0035C167.797 14.6868 168.131 17.5061 167.985 20.3503C167.826 23.4635 167.304 26.7134 168.993 29.5407C169.736 30.7854 170.936 31.9479 172.378 32.3098C174.234 32.7763 175.442 31.6504 176.404 30.2269C177.83 28.1163 178.635 25.6545 179.037 23.1543C179.86 18.0368 179.2 12.5834 180.755 7.59458C181.56 5.0077 183.126 2.6594 185.101 0.816858C185.313 0.618485 185.531 0.431729 185.751 0.24676C184.561 0.0751946 183.354 -0.00254587 182.147 0.00460269C181.186 0.943744 180.342 1.97135 179.665 3.01861C176.753 7.5231 176.531 12.8389 176.167 18.0225C175.993 20.4843 175.776 22.9506 174.994 25.3078C174.635 26.3899 174.134 27.4354 173.464 28.3603C173.418 28.4228 173.252 28.6087 173.136 28.7499C172.802 28.3719 172.443 28.1404 172.188 27.6722C170.846 25.206 171.989 21.9355 172.137 19.312C172.306 16.3346 171.902 13.2321 170.901 10.4192C170.181 8.39344 169.173 6.49371 167.863 4.81737C166.653 5.69307 165.515 6.67242 164.441 7.72505C165.442 8.99928 166.25 10.4263 166.823 12.0035Z" fill="#E43254"/>
<path d="M202.626 15.4047C200.448 16.0302 198.538 17.7074 197.027 19.3015C195.303 21.1217 193.632 23.0965 192.501 25.3492C191.271 27.7985 190.729 30.3871 190.506 33.1036C190.289 35.7593 190.506 38.4266 190.255 41.0805C190.055 43.1831 189.412 45.1713 188.455 46.9271C186.328 50.8311 182.943 53.3626 178.664 54.7584C174.008 56.2765 169.167 57.0379 164.883 59.547C161.044 61.7961 157.811 64.9906 155.359 68.69C153.428 71.6039 152.044 74.8592 151.25 78.2441C151.716 78.5747 152.178 78.9131 152.646 79.241C153.584 79.8996 154.534 80.5405 155.48 81.1884C155.621 80.1822 155.843 79.2011 156.191 77.9876C156.751 76.0352 157.286 74.7288 158.229 72.9854C160.053 69.6149 162.602 66.6169 165.607 64.4974C169.257 61.9248 173.054 61.0071 177.385 59.8088C181.972 58.5399 186.311 56.6715 189.527 53.0373C192.581 49.5855 194.311 45.3544 194.672 40.7695C194.892 37.9566 194.646 35.1427 194.719 32.3289C194.784 29.7652 195.424 27.4705 196.809 25.3054C198.153 23.2046 199.924 21.0842 201.85 19.4901C202.225 19.1809 202.63 18.9128 203.054 18.6787C202.987 17.5778 202.842 16.485 202.626 15.4047Z" fill="#E43254"/>
<path d="M147.884 68.3167C146.818 70.0296 145.749 71.7444 144.695 73.4663C146.042 74.4778 147.398 75.4786 148.762 76.4678C150.174 74.1115 151.626 71.7793 153.054 69.4336C154.552 66.9719 156.296 64.4431 157.031 61.6203C157.846 58.4963 157.062 55.3081 154.407 53.3494C149.307 49.5883 143.102 53.3637 139.345 57.1605C138.247 58.2694 137.2 59.5186 136.274 60.8625C135.887 61.1645 135.531 61.5238 135.208 61.958C134.532 62.8632 134.011 63.8774 133.533 64.9041C133.858 65.1454 134.185 65.3934 134.509 65.6311C134.949 65.9528 135.394 66.27 135.843 66.5845C136.234 66.899 136.631 67.2069 137.023 67.5205C138.26 65.4599 139.579 63.4637 141.199 61.7025C142.806 59.9564 144.472 58.4946 146.551 57.4241C147.37 57.0023 148.481 56.6431 149.321 56.6279C149.532 56.6243 149.743 56.6359 149.954 56.6529C149.965 56.6672 150.403 56.7441 150.496 56.77C150.59 56.795 150.89 56.8977 150.99 56.929C151.052 56.9612 151.16 57.013 151.16 57.013C151.298 57.0943 151.437 57.173 151.574 57.257C151.677 57.3186 151.712 57.3329 151.723 57.3356C151.725 57.3454 151.745 57.3758 151.829 57.4687C151.914 57.5626 152.006 57.6528 152.09 57.7493C152.1 57.7663 152.104 57.7743 152.122 57.8056C152.255 58.0344 152.279 58.0567 152.329 58.1872C152.37 58.2998 152.46 58.7894 152.474 58.7894C152.536 59.7125 152.232 60.7687 151.82 61.6578C150.743 63.9829 149.236 66.1453 147.884 68.3167Z" fill="#E43254"/>
<path d="M167.778 90.4055C167.116 88.9106 166.403 87.4282 165.798 85.9091C165.492 85.1424 165.187 84.3757 164.881 83.6091C164.566 82.8165 164.323 81.9863 163.996 81.2027C163.72 80.5414 163.184 79.9472 162.395 79.9829C161.69 80.0151 160.955 80.4717 160.794 81.2027C160.691 81.67 160.597 82.14 160.512 82.6127C160.243 82.5707 159.958 82.6529 159.805 82.9255C159.152 84.088 158.555 85.2738 157.957 86.4649C157.674 87.027 157.418 87.6203 157.096 88.1609C156.738 88.7605 156.321 89.3261 155.901 89.8819C155.439 90.494 155.931 91.4635 156.612 91.6288C157.45 91.8308 158.345 91.8951 159.201 92.0015C160.023 92.1024 160.844 92.1855 161.671 92.2409C163.319 92.3508 164.971 92.4089 166.623 92.4205C167.724 92.4295 168.174 91.2982 167.778 90.4055Z" fill="#FE4662"/>
<path fill-rule="evenodd" clip-rule="evenodd" d="M164.648 82.6533C162.827 82.961 160.967 83.0387 159.127 82.884C158.852 82.8608 158.61 83.0651 158.587 83.3403C158.564 83.6155 158.768 83.8573 159.043 83.8804C160.967 84.0423 162.911 83.961 164.815 83.6393C165.087 83.5933 165.27 83.3353 165.224 83.063C165.178 82.7907 164.92 82.6073 164.648 82.6533Z" fill="#130000"/>
<path fill-rule="evenodd" clip-rule="evenodd" d="M158.682 84.5622C158.783 84.8195 159.073 84.9466 159.33 84.8462C161.188 84.121 163.271 83.9817 165.21 84.4509C165.478 84.5159 165.749 84.351 165.814 84.0826C165.879 83.8142 165.714 83.544 165.445 83.479C163.308 82.9617 161.016 83.1148 158.967 83.9147C158.709 84.0151 158.582 84.305 158.682 84.5622Z" fill="#130000"/>
<path d="M143.753 45.5653C142.823 44.5413 141.795 43.6942 140.696 43.0124C134.257 39.0181 125.387 40.7016 119.771 45.82C114.324 50.782 112.062 58.5042 112.258 65.7895C111.584 65.0952 110.847 64.4625 110.082 63.8942C107.207 61.7523 103.649 60.395 100.072 60.1278C91.6031 59.4961 83.5746 65.1631 80.5159 72.9372C77.9502 79.4602 79.0888 86.7437 82.7566 92.4947C83.2308 93.6001 83.8273 94.6259 84.5882 95.5829C85.5045 96.7374 86.6047 97.7659 87.688 98.7595C88.8606 99.8363 90.4645 100.576 91.8907 101.252C92.9748 101.766 94.0903 102.219 95.2217 102.635C100.578 105.112 106.538 106.599 112.102 107.678C112.538 107.763 112.977 107.842 113.418 107.917C118.972 109.264 124.574 110.43 130.207 111.4C131.853 111.684 133.502 111.951 135.155 112.204C136.999 112.486 139.42 113.098 140.235 110.789C140.612 109.718 140.86 108.576 141.107 107.444C141.135 107.39 141.168 107.34 141.191 107.282C143.651 101.287 145.646 95.0995 147.206 88.8052C149.562 82.0757 150.314 74.7431 150.139 67.6785C149.956 60.2815 149.015 51.3637 143.753 45.5653Z" fill="#FA9F9F"/>
<path d="M111.102 64.7127C110.769 64.4277 110.429 64.1534 110.082 63.8942C108.659 62.8345 107.069 61.9677 105.393 61.3297C96.4417 67.0297 87.7014 73.0604 79.1567 79.3539C79.0478 81.6727 79.3335 83.9933 79.9587 86.2272C84.8302 82.6047 89.7617 79.0652 94.76 75.6214C100.15 71.9077 105.6 68.2709 111.102 64.7127Z" fill="#FDFDFD"/>
<path d="M130.232 46.8417C124.584 49.8968 118.955 53.0243 113.449 56.3359C112.725 58.8066 112.344 61.3917 112.267 63.958C118.34 60.0478 124.478 56.2385 130.674 52.5427C134.085 50.5089 137.507 48.4912 140.93 46.478C141.716 46.016 142.5 45.5496 143.28 45.0796C142.477 44.2736 141.614 43.5816 140.696 43.0124C140.216 42.7148 139.72 42.4587 139.216 42.2228C136.196 43.7151 133.195 45.2386 130.232 46.8417Z" fill="#FDFDFD"/>
<path d="M101.623 89.5843C102.202 87.0376 102.981 84.4677 103.933 82.0443C106.385 83.0818 108.866 84.054 111.396 84.8743C112.565 85.2531 114.013 84.4311 114.286 83.2328C115.025 79.9846 116.057 76.993 117.438 74.088C119.834 75.2469 122.343 76.1941 124.902 76.8929C126.086 77.2173 127.647 76.4935 127.887 75.1978C128.288 73.0327 128.775 70.8926 129.431 68.7882C129.801 67.5971 130.202 66.4757 130.636 65.3855C132.973 66.7911 135.542 67.8187 138.197 68.4174C139.561 68.7248 140.703 68.0019 141.179 66.7232C141.719 65.2711 142.085 64.4222 142.817 62.9675C143.487 61.6361 144.228 60.3395 145.034 59.0858C145.426 58.4764 145.834 57.8786 146.257 57.2898C146.741 56.6169 146.881 56.431 147.351 55.8511C147.713 55.4034 148.089 54.9683 148.461 54.5295C147.995 52.8916 147.391 51.31 146.635 49.8195C146.212 50.0349 145.823 50.3128 145.44 50.6952C144.868 51.2662 144.355 51.8971 143.848 52.5252C142.784 53.8468 141.773 55.2131 140.853 56.6401C139.516 58.7141 138.378 60.9042 137.408 63.1694C137.274 63.1266 137.139 63.0908 137.005 63.0443C136.1 62.737 135.853 62.6378 135.078 62.2696C133.563 61.5485 132.138 60.6621 130.807 59.6398C129.828 58.8884 127.992 59.4299 127.485 60.512C125.841 64.0228 124.519 67.7034 123.681 71.493C121.566 70.8095 119.618 69.9615 117.6 68.8454C116.512 68.244 114.98 68.5443 114.362 69.6943C112.677 72.8361 111.332 76.1593 110.367 79.5906C108.17 78.8489 105.994 78.0492 103.874 77.1172C102.852 76.6668 101.318 76.7151 100.775 77.9303C99.6146 80.5279 98.6519 83.1801 97.9304 85.9171C97.5714 85.7258 97.2115 85.523 96.84 85.288C95.7772 84.6151 94.9663 83.9423 94.0411 83.0076C93.0382 81.9943 91.3897 82.2802 90.6574 83.4436C89.2294 85.7142 87.7907 87.9812 86.3261 90.2285C85.6081 91.3294 84.8713 92.4196 84.2373 93.5723C84.0783 93.8636 83.9408 94.1683 83.8077 94.4757C84.0479 94.8536 84.3033 95.2246 84.5882 95.5829C84.9749 96.069 85.3973 96.5291 85.8331 96.9777C86.2681 96.5925 86.7146 96.2092 87.1031 95.7848C88.0693 94.7294 88.9079 93.5544 89.7447 92.3963C90.8369 90.8844 91.8916 89.3493 92.9293 87.8016C94.7199 89.2233 96.731 90.334 98.8949 91.1346C99.9844 91.5376 101.374 90.6789 101.623 89.5843Z" fill="#FDFDFD"/>
<path d="M99.1253 104.235C103.927 101.008 108.73 97.7806 113.532 94.5539C124.167 87.4072 134.709 80.1317 145.208 72.7893C146.863 71.6321 148.505 70.457 150.151 69.29C150.149 68.7521 150.152 68.2137 150.139 67.6785C150.11 66.549 150.061 65.3825 149.985 64.1985C148.242 65.302 146.5 66.4074 144.767 67.5288C139.378 71.0182 133.97 74.4817 128.615 78.0247C117.939 85.0884 107.324 92.2405 96.7096 99.3962C95.52 100.198 94.3323 101.001 93.1454 101.806C93.8304 102.097 94.5207 102.378 95.2217 102.635C96.4926 103.223 97.7991 103.751 99.1253 104.235Z" fill="#FDFDFD"/>
<path d="M148.295 79.3887C147.29 78.6613 146.025 78.3763 144.815 78.7176C143.545 79.076 142.631 80.0616 141.805 81.032C139.263 84.021 137.178 87.3129 135.558 90.8559C134.344 89.8783 133.206 88.7998 132.12 87.5631C131.097 86.3979 129.288 86.8724 128.53 88.026C126.075 91.7584 123.827 95.6821 121.971 99.7612C120.036 99.0624 118.218 98.1617 116.447 97.0019C115.581 96.4344 114.049 96.757 113.607 97.7471C112.714 99.7433 111.966 101.777 111.521 103.922C111.299 104.988 111.131 106.086 111.149 107.178C111.151 107.275 111.15 107.381 111.149 107.486C111.467 107.55 111.787 107.617 112.102 107.678C112.538 107.763 112.977 107.842 113.418 107.917C113.735 107.994 114.054 108.064 114.371 108.139C114.406 108.012 114.441 107.886 114.48 107.766C114.786 106.841 115.033 105.9 115.3 104.964C115.599 103.915 115.946 102.876 116.339 101.856C118.32 103.022 120.411 103.976 122.601 104.712C123.475 105.006 124.743 104.532 125.15 103.674C126.912 99.9658 128.762 96.3487 130.885 92.8566C132.279 94.1818 133.782 95.3908 135.387 96.4595C136.742 97.3611 138.296 96.379 138.796 95.0709C140.127 91.5931 142.398 87.6355 144.789 84.7608C145.118 84.3641 145.449 83.9638 145.805 83.5894C145.814 83.5795 145.846 83.5384 145.885 83.4848C145.918 83.5295 145.947 83.5653 145.955 83.5742C146.298 83.9263 146.621 84.2944 146.972 84.6393C147.351 85.0128 147.745 85.3747 148.152 85.7232C148.641 83.9406 149.028 82.1275 149.327 80.2975C149.002 79.9731 148.669 79.6604 148.295 79.3887Z" fill="#FDFDFD"/>
<path d="M143.641 100.806C144.323 98.8471 144.957 96.8723 145.547 94.8832C144.457 95.4641 143.395 96.1029 142.333 96.7267C139.607 98.327 136.939 100.029 134.248 101.69C131.556 103.351 128.867 105.029 126.277 106.844C124.921 107.794 123.598 108.783 122.333 109.851C122.315 109.866 122.3 109.884 122.282 109.898C123.946 110.241 125.614 110.562 127.286 110.87C127.715 110.641 128.146 110.415 128.573 110.178C131.335 108.643 134.009 106.942 136.676 105.249C139.001 103.773 141.338 102.315 143.641 100.806Z" fill="#FDFDFD"/>
<path d="M145.247 114.364C144.238 113.493 143.197 112.647 142.223 111.739L140.748 110.362C140.239 109.887 139.771 109.359 139.258 108.895C138.826 108.504 138.223 108.253 137.654 108.553C137.144 108.822 136.762 109.414 136.897 110.01C136.983 110.39 137.079 110.769 137.179 111.147C136.967 111.211 136.785 111.37 136.767 111.624C136.69 112.708 136.662 113.79 136.634 114.877C136.622 115.39 136.64 115.916 136.59 116.427C136.535 116.994 136.423 117.557 136.307 118.112C136.18 118.724 136.879 119.268 137.438 119.153C138.127 119.01 138.809 118.746 139.477 118.526C140.118 118.315 140.753 118.09 141.382 117.843C142.635 117.35 143.872 116.819 145.095 116.252C145.91 115.875 145.849 114.884 145.247 114.364Z" fill="#FA9F9F"/>
<path fill-rule="evenodd" clip-rule="evenodd" d="M140.191 109.662C138.961 110.518 137.624 111.219 136.22 111.743C135.961 111.84 135.829 112.128 135.926 112.387C136.022 112.646 136.31 112.777 136.569 112.68C138.052 112.127 139.463 111.387 140.762 110.483C140.988 110.325 141.044 110.013 140.886 109.787C140.729 109.56 140.417 109.504 140.191 109.662Z" fill="#130000"/>
<path fill-rule="evenodd" clip-rule="evenodd" d="M141.69 110.367C141.634 110.096 141.37 109.922 141.099 109.978C139.324 110.345 137.671 111.267 136.425 112.581C136.235 112.782 136.243 113.098 136.443 113.288C136.644 113.478 136.96 113.47 137.15 113.27C138.256 112.103 139.726 111.283 141.301 110.958C141.571 110.902 141.745 110.637 141.69 110.367Z" fill="#130000"/>
<path fill-rule="evenodd" clip-rule="evenodd" d="M162.477 82.6473C162.753 82.6546 162.971 82.8843 162.964 83.1604C162.804 89.1486 162.428 95.5612 162.052 101.964L162.052 101.969C161.676 108.376 161.301 114.774 161.142 120.745C160.686 137.928 160.239 155.18 163.014 172.079C163.651 172.852 164.069 173.867 164.357 174.974C164.659 176.141 164.827 177.453 164.937 178.774C165.019 179.762 165.07 180.771 165.118 181.737C165.135 182.062 165.151 182.382 165.168 182.695C165.236 183.95 165.317 185.088 165.481 186.011C166.382 191.107 167.145 196.211 167.907 201.316C168.304 203.974 168.701 206.632 169.118 209.29C169.81 213.699 170.542 218.079 171.272 222.444C173.221 234.097 175.153 245.65 176.252 257.396C176.393 258.898 176.486 260.503 176.58 262.127C176.649 263.307 176.718 264.498 176.807 265.667C177.019 268.476 177.345 271.222 178.036 273.655C178.112 273.921 177.958 274.197 177.692 274.273C177.426 274.348 177.15 274.194 177.074 273.929C176.355 271.396 176.023 268.568 175.81 265.743C175.718 264.53 175.648 263.329 175.58 262.149C175.487 260.549 175.397 258.988 175.256 257.489C174.161 245.782 172.238 234.283 170.291 222.642C169.56 218.269 168.825 213.876 168.13 209.445C167.711 206.771 167.313 204.106 166.915 201.445C166.154 196.348 165.396 191.269 164.496 186.185C164.321 185.195 164.237 184.002 164.169 182.749C164.152 182.428 164.135 182.102 164.119 181.774C164.07 180.812 164.021 179.827 163.94 178.857C163.832 177.557 163.67 176.311 163.389 175.225C163.106 174.135 162.712 173.246 162.168 172.628C162.106 172.558 162.065 172.472 162.05 172.379C159.232 155.327 159.685 137.932 160.142 120.718C160.301 114.73 160.678 108.317 161.054 101.915L161.054 101.91C161.43 95.5023 161.805 89.1045 161.964 83.1338C161.971 82.8578 162.201 82.6399 162.477 82.6473Z" fill="#130000"/>
<path fill-rule="evenodd" clip-rule="evenodd" d="M161.709 171.669C161.801 171.409 162.087 171.272 162.347 171.364C166.897 172.972 170.338 176.809 172.456 181.05C174.572 185.287 175.539 189.976 176.406 194.547C181.344 220.589 184.066 247.051 184.532 273.554C184.537 273.83 184.317 274.057 184.041 274.062C183.765 274.067 183.537 273.847 183.532 273.571C183.067 247.126 180.351 220.719 175.424 194.734C174.555 190.153 173.607 185.594 171.561 181.497C169.518 177.404 166.243 173.802 162.014 172.307C161.754 172.215 161.617 171.929 161.709 171.669Z" fill="#130000"/>
<path fill-rule="evenodd" clip-rule="evenodd" d="M162.129 170.775C162.406 170.779 162.626 171.007 162.621 171.283C162.167 197.621 162.834 223.979 165.997 250.113C166.874 257.365 169.886 264.418 172.817 271.279C173.109 271.964 173.4 272.646 173.689 273.327C173.797 273.581 173.678 273.875 173.424 273.983C173.169 274.09 172.876 273.972 172.768 273.717C172.479 273.035 172.186 272.349 171.891 271.659C168.97 264.822 165.899 257.635 165.005 250.233C161.834 224.038 161.167 197.631 161.621 171.266C161.626 170.99 161.853 170.77 162.129 170.775Z" fill="#130000"/>
<path fill-rule="evenodd" clip-rule="evenodd" d="M115.873 153.495C124.439 150.477 134.079 151.134 142.445 154.59C147.621 156.728 152.324 159.9 156.391 163.718M116.205 154.439C115.075 154.837 114.071 155.319 113.617 156.182C113.088 157.187 113.478 158.588 114.383 159.52C115.291 160.454 116.559 160.975 117.905 161.49C130.204 166.187 143.029 169.452 156.069 171.255C157.125 171.4 158.598 171.29 159.843 171.133C160.362 171.067 160.833 170.995 161.203 170.933C161.127 170.838 161.044 170.736 160.954 170.626C160.481 170.041 159.836 169.25 159.154 168.423C157.777 166.754 156.284 164.988 155.707 164.447C151.717 160.703 147.115 157.601 142.063 155.514C133.895 152.14 124.51 151.512 116.205 154.439ZM162.121 171.275C162.22 171.765 162.22 171.765 162.22 171.765L162.208 171.767L162.173 171.774C162.143 171.78 162.1 171.788 162.043 171.799C161.931 171.82 161.768 171.85 161.567 171.885C161.163 171.955 160.602 172.045 159.968 172.125C158.716 172.283 157.129 172.41 155.932 172.245C142.819 170.432 129.919 167.149 117.548 162.424C116.226 161.919 114.75 161.332 113.666 160.217C112.58 159.099 111.931 157.239 112.732 155.716M162.121 171.275C162.511 170.962 162.511 170.962 162.511 170.962L162.299 170.698C162.164 170.53 161.969 170.289 161.731 169.996C161.256 169.41 160.61 168.616 159.926 167.787C158.571 166.145 157.027 164.314 156.391 163.718M162.121 171.275L162.511 170.962C162.62 171.098 162.65 171.281 162.591 171.445C162.532 171.609 162.391 171.73 162.22 171.765L162.121 171.275ZM115.873 153.495C114.759 153.888 113.386 154.472 112.732 155.716Z" fill="#130000"/>
<path fill-rule="evenodd" clip-rule="evenodd" d="M200.306 154.88C193.494 152.045 185.793 152.65 179.08 155.926C174.927 157.952 171.137 160.967 167.846 164.613M200.306 154.88C201.223 155.262 202.033 155.719 202.404 156.554C202.855 157.566 202.512 158.954 201.774 159.853C201.035 160.751 200.007 161.251 198.899 161.751C188.758 166.326 178.184 169.503 167.434 171.258C166.588 171.397 165.392 171.293 164.366 171.14C163.962 171.079 163.593 171.013 163.297 170.955C163.364 170.857 163.438 170.749 163.518 170.632C163.909 170.062 164.441 169.291 165.004 168.486C166.141 166.858 167.372 165.139 167.846 164.613M162.464 171.289L162.05 171.008L162.225 170.751C162.337 170.587 162.498 170.352 162.694 170.066C163.086 169.495 163.619 168.722 164.184 167.913C165.302 166.313 166.577 164.527 167.103 163.943C170.464 160.22 174.354 157.118 178.642 155.027C185.575 151.643 193.577 150.996 200.69 153.957C201.625 154.346 202.775 154.928 203.318 156.147C203.965 157.601 203.45 159.388 202.546 160.488C201.641 161.589 200.404 162.169 199.31 162.662C189.09 167.273 178.432 170.476 167.596 172.245M162.464 171.289L162.347 171.775C162.187 171.737 162.057 171.622 161.998 171.469C161.938 171.316 161.958 171.144 162.05 171.008L162.464 171.289ZM162.464 171.289C162.347 171.775 162.347 171.775 162.347 171.775ZM162.35 171.776L162.358 171.778ZM162.358 171.778L162.387 171.784ZM162.387 171.784C162.412 171.79 162.449 171.799 162.495 171.809ZM162.495 171.809C162.589 171.83 162.724 171.859 162.892 171.894ZM162.892 171.894C163.226 171.962 163.693 172.05 164.219 172.129ZM164.219 172.129C165.254 172.283 166.583 172.411 167.596 172.245Z" fill="#130000"/>
<path fill-rule="evenodd" clip-rule="evenodd" d="M177.209 183.789C175.548 177.204 168.908 172.223 162.126 172.475C161.85 172.485 161.618 172.27 161.608 171.994C161.598 171.718 161.813 171.486 162.089 171.475C169.343 171.207 176.402 176.502 178.179 183.544C178.457 184.649 178.615 185.77 178.753 186.871C178.776 187.057 178.799 187.242 178.822 187.426C178.934 188.343 179.045 189.241 179.212 190.13C179.614 192.265 180.394 194.343 181.943 195.677C182.912 196.514 184.176 196.937 185.477 196.968C185.727 194.729 186.519 192.408 188.354 190.956C188.903 190.521 189.706 190.078 190.573 190.247C191.597 190.447 192.078 191.309 192.202 192.165C192.325 193.019 192.129 194.001 191.687 194.743C190.649 196.487 188.799 197.554 186.859 197.87C186.707 197.895 186.555 197.915 186.402 197.93C186.401 197.948 186.4 197.966 186.4 197.983C186.314 199.796 186.62 201.737 187.362 203.366C188.102 204.993 189.26 206.277 190.868 206.858C190.992 206.903 191.117 206.942 191.244 206.976C191.255 206.939 191.267 206.901 191.278 206.864C191.847 204.979 192.849 203.26 194.537 202.121C195.19 201.68 196.079 201.448 196.862 201.515C197.647 201.582 198.48 201.983 198.672 202.951L198.672 202.953C198.782 203.52 198.595 204.062 198.414 204.464C197.324 206.876 194.589 208.345 191.986 208.117C191.661 209.602 191.568 211.195 191.598 212.72C191.637 214.791 191.808 216.889 191.995 219.004C192.019 219.275 192.044 219.547 192.068 219.818C192.233 221.661 192.399 223.515 192.487 225.355C192.688 229.578 192.484 233.785 190.891 237.765C190.888 237.772 190.885 237.779 190.882 237.787C191.64 238.596 192.359 239.484 193.066 240.357L193.081 240.375C193.803 241.267 194.514 242.144 195.264 242.942C196.763 244.537 198.364 245.756 200.383 246.087C200.656 246.131 200.84 246.389 200.796 246.661C200.751 246.934 200.494 247.118 200.221 247.074C197.881 246.69 196.091 245.283 194.535 243.626C193.756 242.798 193.022 241.892 192.304 241.005L192.301 241.001C191.679 240.233 191.069 239.48 190.439 238.782C189.984 239.693 189.385 240.568 188.535 241.208C187.371 242.082 185.602 242.436 184.269 241.572C182.964 240.726 182.522 238.91 183.14 237.529C183.758 236.145 185.293 235.319 186.764 235.41C188.071 235.492 189.19 236.197 190.107 237.021C191.49 233.347 191.681 229.437 191.488 225.403C191.401 223.585 191.237 221.753 191.072 219.909C191.048 219.637 191.024 219.365 190.999 219.092C190.812 216.976 190.638 214.848 190.598 212.739C190.568 211.185 190.66 209.523 191 207.946C190.841 207.904 190.683 207.855 190.528 207.798C188.6 207.101 187.27 205.579 186.452 203.781C185.638 201.993 185.312 199.902 185.399 197.966C183.916 197.919 182.445 197.431 181.29 196.435C179.485 194.879 178.646 192.53 178.229 190.315C178.056 189.392 177.941 188.456 177.828 187.54C177.806 187.358 177.783 187.176 177.761 186.996C177.623 185.899 177.472 184.83 177.209 183.789ZM189.7 238.009C189.261 238.967 188.711 239.824 187.934 240.409C186.993 241.116 185.689 241.301 184.813 240.733C183.957 240.178 183.618 238.908 184.052 237.937C184.484 236.971 185.606 236.34 186.702 236.408C187.803 236.477 188.803 237.143 189.7 238.009ZM192.241 207.133C194.38 207.248 196.614 206.018 197.502 204.052C197.664 203.695 197.739 203.395 197.691 203.144C197.62 202.791 197.329 202.559 196.777 202.512C196.222 202.464 195.56 202.637 195.097 202.95C193.661 203.919 192.768 205.401 192.241 207.133ZM186.49 196.913C186.559 196.904 186.629 196.894 186.698 196.883C188.402 196.606 189.968 195.677 190.828 194.232C191.153 193.685 191.303 192.935 191.212 192.309C191.122 191.685 190.829 191.316 190.381 191.229C189.956 191.146 189.458 191.358 188.974 191.74C187.474 192.927 186.743 194.873 186.49 196.913Z" fill="#130000"/>
<path fill-rule="evenodd" clip-rule="evenodd" d="M185.787 117.949C185.921 117.822 185.979 117.626 185.922 117.438C185.84 117.174 185.561 117.026 185.297 117.107C185.166 117.148 185.085 117.231 185.067 117.25L185.066 117.251C185.034 117.284 185.009 117.316 184.992 117.34C184.956 117.39 184.92 117.448 184.886 117.507C184.816 117.628 184.729 117.795 184.626 118C184.421 118.411 184.142 119.004 183.801 119.748C183.118 121.237 182.181 123.352 181.076 125.879C178.867 130.936 175.983 137.658 173.121 144.373C170.258 151.087 167.417 157.796 165.29 162.825C164.227 165.34 163.343 167.435 162.725 168.901C162.416 169.635 162.173 170.211 162.007 170.603L161.831 171.022C157.724 172.831 153.538 174.69 149.831 177.332C146.064 180.018 142.747 183.622 141.188 188.053C139.628 192.483 140.055 197.807 143.067 201.509C144.115 202.795 145.514 203.913 147.187 204.352C147.34 204.392 147.493 204.426 147.646 204.454C147.578 206.108 147.801 207.779 148.294 209.327C148.605 210.303 149.007 211.244 149.398 212.159C149.424 212.22 149.449 212.28 149.475 212.34C149.893 213.32 150.292 214.274 150.579 215.262C151.188 217.361 151.282 219.591 151.237 221.838C151.174 224.899 150.84 227.965 149.474 230.591C147.265 234.839 142.221 237.437 137.482 236.77C132.743 236.1 128.613 232.209 127.664 227.515C127.609 227.244 127.346 227.069 127.075 227.124C126.804 227.179 126.629 227.443 126.684 227.713C127.717 232.822 132.183 237.031 137.342 237.76C142.501 238.486 147.956 235.676 150.361 231.053C151.838 228.214 152.174 224.955 152.236 221.858C152.282 219.581 152.191 217.23 151.54 214.984C151.234 213.931 150.811 212.924 150.395 211.947C150.371 211.891 150.346 211.834 150.322 211.777C149.927 210.852 149.543 209.952 149.247 209.023C148.79 207.59 148.586 206.06 148.641 204.554C151.462 204.615 154.174 202.816 155.878 200.634C156.432 199.925 156.912 198.999 157.082 198.074C157.252 197.145 157.118 196.138 156.319 195.42C155.616 194.788 154.719 194.688 153.894 194.847C153.072 195.005 152.265 195.425 151.637 195.924M148.718 203.553C151.097 203.577 153.5 202.054 155.09 200.019C155.569 199.405 155.964 198.624 156.098 197.893C156.232 197.166 156.1 196.567 155.651 196.163M147.724 203.45C147.629 203.431 147.535 203.409 147.441 203.385C146.036 203.016 144.805 202.059 143.843 200.877C141.097 197.502 140.66 192.562 142.131 188.385C143.601 184.21 146.75 180.757 150.411 178.147C154.076 175.535 158.235 173.698 162.416 171.857C162.533 171.806 162.626 171.711 162.675 171.594L162.215 171.4C162.675 171.594 162.675 171.594 162.675 171.594L162.929 170.992C163.094 170.599 163.337 170.023 163.646 169.29C164.265 167.824 165.149 165.729 166.212 163.214C168.337 158.186 171.179 151.478 174.041 144.765C176.903 138.051 179.785 131.332 181.993 126.28C183.097 123.753 184.031 121.646 184.71 120.164C185.05 119.423 185.323 118.843 185.521 118.447C185.62 118.247 185.697 118.102 185.752 118.008C185.767 117.982 185.779 117.962 185.787 117.949M148.718 203.553C149.028 200.868 150.192 198.35 152.259 196.707C152.788 196.287 153.45 195.95 154.082 195.829C154.711 195.708 155.253 195.806 155.651 196.163" fill="#130000"/>
<path fill-rule="evenodd" clip-rule="evenodd" d="M138.25 111.232C137.994 111.335 137.869 111.626 137.971 111.882L161.751 171.584C161.853 171.841 162.144 171.966 162.4 171.864C162.657 171.761 162.782 171.471 162.68 171.214L138.9 111.512C138.798 111.255 138.507 111.13 138.25 111.232Z" fill="#130000"/>
<path d="M219.487 136.232C219.012 133.374 215.771 133.127 213.647 134.263C211.583 135.366 210.392 137.535 209.535 139.628C209.533 139.622 209.529 139.615 209.525 139.61C208.156 137.523 205.998 135.217 203.334 135.101C201.882 135.038 200.484 135.844 199.861 137.165C199.19 138.592 199.407 140.244 200.226 141.567C200.979 142.784 202.096 143.772 203.09 144.786C204.12 145.839 205.15 146.891 206.18 147.943C207.331 149.118 208.471 150.305 209.633 151.47C209.806 151.645 210.003 151.796 210.207 151.927C210.357 152.292 210.621 152.608 211.022 152.82C212.062 153.369 213.174 153.03 213.821 152.085C215.297 149.932 216.48 147.692 217.412 145.253C217.798 144.24 218.086 143.203 218.342 142.152C219.263 140.312 219.832 138.311 219.487 136.232Z" fill="#FE4662"/>
<path d="M225.438 160.769C225.427 160.464 225.417 160.182 225.295 159.894C225.266 159.824 225.23 159.763 225.193 159.7C225.125 159.543 225.024 159.395 224.904 159.266C224.713 158.98 224.438 158.724 224.127 158.759C223.984 158.775 223.84 158.791 223.702 158.823C223.648 158.831 223.596 158.842 223.543 158.857C222.889 158.941 222.349 159.516 221.905 159.969C221.57 160.312 221.284 160.685 220.997 161.063C220.826 161.279 220.655 161.494 220.481 161.709C220.464 161.685 220.447 161.66 220.43 161.635C220.019 161.071 219.566 160.544 219.101 160.024C218.52 159.372 217.576 158.828 216.682 158.939C216.134 158.855 215.706 159.268 215.581 159.77C215.443 160.114 215.397 160.425 215.47 160.834C215.493 160.968 215.515 161.109 215.551 161.24C215.648 161.598 215.798 161.968 216.005 162.274C216.329 162.754 216.652 163.24 216.997 163.708C217.334 164.163 217.66 164.625 217.977 165.093C218.446 165.785 218.833 166.552 219.589 166.979C220.045 167.235 220.581 167.267 221.063 167.127C221.537 167.079 221.946 167.015 222.373 166.782C222.632 166.64 222.886 166.434 223.079 166.211C223.364 165.885 223.625 165.534 223.887 165.19C224.214 164.761 224.476 164.322 224.707 163.834C224.888 163.452 225.05 163.063 225.21 162.673C225.36 162.308 225.373 161.855 225.421 161.473C225.452 161.231 225.446 161.011 225.438 160.769Z" fill="#FE4662"/>
<path d="M138.095 133.185C138.092 133.17 138.09 133.159 138.084 133.137C138.026 132.928 137.92 132.746 137.767 132.593C137.545 132.365 137.27 132.239 136.95 132.233C136.759 132.228 136.592 132.265 136.421 132.338C136.39 132.35 136.314 132.377 136.254 132.401C134.931 132.689 134.05 134.306 133.501 135.436L133.342 135.766C133.289 135.713 133.233 135.663 133.181 135.609C132.197 134.602 131.233 133.316 129.787 132.983C128.636 132.718 127.501 133.518 127.489 134.736C127.472 136.436 128.756 137.789 129.826 138.966C130.234 139.413 130.652 139.85 131.081 140.277C131.288 140.485 131.499 140.689 131.713 140.892C131.825 140.999 131.935 141.109 132.052 141.211C132.061 141.218 132.07 141.224 132.079 141.231C132.347 141.641 132.725 141.981 133.186 142.175C134.297 142.644 135.647 142.238 136.263 141.167C136.644 140.502 136.899 139.742 137.165 139.026C137.384 138.437 137.603 137.847 137.823 137.258C138.266 136.065 138.807 134.338 138.095 133.185Z" fill="#FE4662"/>
<path d="M146.116 146.598C146.039 146.627 145.962 146.661 145.883 146.696C145.961 146.663 146.039 146.631 146.116 146.598Z" fill="#FE4662"/>
<path d="M146.116 146.598C146.118 146.597 146.12 146.597 146.122 146.596C146.141 146.588 146.159 146.579 146.178 146.572C146.157 146.581 146.137 146.589 146.116 146.598Z" fill="#FE4662"/>
<path d="M147.75 147.164C147.704 147.001 147.621 146.859 147.503 146.738C147.242 146.477 146.912 146.429 146.564 146.49C146.491 146.503 146.417 146.516 146.344 146.531C146.267 146.546 146.194 146.57 146.122 146.596C145.822 146.721 145.527 146.851 145.251 147.024C144.94 147.22 144.643 147.493 144.363 147.734C144.339 147.754 144.324 147.78 144.302 147.8C144.283 147.776 144.263 147.751 144.244 147.727C144.096 147.539 143.938 147.362 143.779 147.183C143.691 147.086 143.607 146.985 143.516 146.891C143.33 146.702 143.099 146.573 142.855 146.472C142.658 146.372 142.453 146.287 142.249 146.201C141.971 146.085 141.697 146.07 141.416 146.128C141.219 146.104 141.024 146.142 140.847 146.279C140.669 146.416 140.574 146.608 140.549 146.818C140.461 147.003 140.399 147.203 140.408 147.413C140.415 147.573 140.451 147.737 140.478 147.896C140.495 147.99 140.518 148.081 140.539 148.173C140.57 148.447 140.637 148.715 140.782 148.957C140.848 149.068 140.933 149.171 141.008 149.277C141.226 149.586 141.449 149.89 141.688 150.183C142.003 150.572 142.308 150.975 142.638 151.351C142.914 151.662 143.472 151.885 143.884 151.866C143.938 151.864 143.991 151.855 144.044 151.848C144.401 151.991 144.798 152.048 145.169 151.928C145.6 151.788 145.987 151.526 146.216 151.124C146.349 150.888 146.487 150.656 146.633 150.428C146.706 150.314 146.78 150.201 146.856 150.09C146.957 149.941 147.026 149.776 147.092 149.609C147.246 149.262 147.411 148.919 147.536 148.56C147.584 148.419 147.637 148.28 147.678 148.137C147.741 147.918 147.75 147.688 147.779 147.463C147.773 147.505 147.768 147.547 147.762 147.589C147.787 147.447 147.788 147.305 147.75 147.164Z" fill="#FE4662"/>
<path d="M116.563 168.126C116.504 167.985 116.424 167.841 116.335 167.698C116.116 167.275 115.777 166.931 115.259 166.712C114.639 166.45 113.8 166.474 113.194 166.849C112.738 167.081 112.333 167.442 112.161 167.829C111.539 169.238 111.163 170.788 110.734 172.268C110.715 172.332 110.696 172.394 110.679 172.458C110.603 172.391 110.528 172.324 110.453 172.257L108.755 170.741C108.173 170.222 107.605 169.842 106.846 169.625C105.962 169.372 105.1 169.542 104.289 169.923C103.939 170.088 103.583 170.494 103.391 170.821C103.106 171.309 103.02 171.866 103.094 172.418C103.194 173.164 103.64 173.852 104.284 174.241C104.304 174.266 104.331 174.286 104.351 174.312C104.336 174.292 104.321 174.272 104.306 174.253C104.318 174.26 104.331 174.266 104.342 174.273C105.145 175.231 106.129 176.05 107.042 176.898C107.515 177.337 107.988 177.777 108.462 178.218C108.691 178.429 108.918 178.642 109.147 178.855C109.425 179.112 109.709 179.378 110.038 179.565C110.788 179.99 111.506 179.998 112.332 179.843L112.994 179.562C113.318 179.388 113.578 179.15 113.774 178.847C114.038 178.504 114.181 178.16 114.27 177.781C114.293 177.72 114.324 177.665 114.344 177.602L115.588 173.61C115.736 173.136 115.874 172.649 115.996 172.16C116.036 172.023 116.077 171.887 116.117 171.751C116.31 171.093 116.577 170.415 116.688 169.738C116.782 169.168 116.793 168.672 116.563 168.126Z" fill="#FE4662"/>
<path d="M133.199 158.552C133.271 158.345 133.216 158.108 133.036 157.974C132.856 157.838 132.662 157.846 132.483 157.939C132.33 157.949 132.195 157.994 132.061 158.067C131.948 158.086 131.839 158.118 131.731 158.181C131.63 158.24 131.528 158.338 131.431 158.414C131.31 158.512 131.19 158.611 131.073 158.713C130.758 158.988 130.516 159.291 130.302 159.65C130.247 159.742 130.208 159.84 130.157 159.932C130.048 159.817 129.94 159.703 129.831 159.588C129.623 159.368 129.392 159.168 129.178 158.954C128.912 158.687 128.669 158.37 128.323 158.25C128.179 158.135 128.036 158.061 127.87 158.034C127.808 157.989 127.747 157.944 127.688 157.898C127.531 157.78 127.269 157.826 127.129 157.938C126.969 158.066 126.901 158.263 126.949 158.465C126.963 158.523 126.979 158.581 126.993 158.639C126.959 158.773 126.95 158.909 126.999 159.061C127.011 159.098 127.027 159.134 127.041 159.17C127.041 159.559 127.296 159.92 127.5 160.249C127.704 160.579 127.912 160.914 128.159 161.214C128.555 161.69 128.99 162.137 129.436 162.565C129.466 162.594 129.501 162.617 129.534 162.643C129.706 162.961 129.994 163.216 130.344 163.296C131.069 163.461 131.756 163.077 131.981 162.367C132.107 161.961 132.262 161.563 132.423 161.169C132.591 160.792 132.785 160.428 132.897 160.029C132.942 159.864 132.993 159.699 133.048 159.537C133.074 159.457 133.108 159.378 133.133 159.296C133.17 159.169 133.175 159.046 133.166 158.923C133.196 158.798 133.21 158.678 133.199 158.552Z" fill="#FE4662"/>
</g>
<path d="M245.86 226.823C249.097 192.127 280.206 166.657 314.902 169.894V169.894C349.598 173.13 375.46 203.914 372.223 238.611V238.611C368.987 273.307 337.878 298.777 303.181 295.54V295.54C268.485 292.303 242.624 261.519 245.86 226.823V226.823Z" fill="white"/>
<path d="M340.209 254.009C339.781 253.967 339.438 253.803 339.181 253.516C338.937 253.22 338.834 252.874 338.872 252.479C338.91 252.084 339.077 251.77 339.373 251.537C339.681 251.293 340.05 251.192 340.478 251.234C340.896 251.274 341.227 251.443 341.471 251.74C341.717 252.026 341.82 252.366 341.782 252.761C341.744 253.156 341.576 253.475 341.279 253.72C340.984 253.953 340.627 254.049 340.209 254.009Z" fill="#4F00CF"/>
<path d="M335.814 253.583C335.385 253.542 335.043 253.377 334.786 253.091C334.541 252.794 334.438 252.448 334.476 252.053C334.515 251.658 334.682 251.344 334.977 251.111C335.286 250.868 335.654 250.767 336.083 250.808C336.5 250.849 336.831 251.017 337.076 251.314C337.321 251.6 337.425 251.94 337.387 252.335C337.348 252.73 337.181 253.049 336.884 253.294C336.588 253.527 336.231 253.624 335.814 253.583Z" fill="#4F00CF"/>
<path d="M331.419 253.157C330.99 253.116 330.647 252.952 330.39 252.665C330.146 252.368 330.043 252.022 330.081 251.627C330.119 251.232 330.286 250.918 330.582 250.685C330.89 250.442 331.259 250.341 331.687 250.382C332.105 250.423 332.436 250.591 332.68 250.888C332.926 251.174 333.03 251.514 332.991 251.909C332.953 252.304 332.785 252.624 332.488 252.868C332.193 253.101 331.836 253.198 331.419 253.157Z" fill="#4F00CF"/>
<path d="M323.508 242.656C324.207 242.724 324.808 242.924 325.311 243.258C325.815 243.58 326.198 243.975 326.46 244.445L326.589 243.108L328.975 243.339L328.061 252.781C327.977 253.65 327.727 254.405 327.312 255.048C326.895 255.703 326.318 256.193 325.581 256.52C324.842 256.859 323.976 256.98 322.984 256.884C321.652 256.755 320.588 256.338 319.791 255.635C319.005 254.933 318.608 254.04 318.599 252.958L320.951 253.185C321.033 253.626 321.266 253.99 321.648 254.278C322.04 254.578 322.529 254.756 323.116 254.813C323.804 254.879 324.383 254.725 324.852 254.349C325.32 253.984 325.594 253.385 325.675 252.55L325.816 251.095C325.469 251.505 325.01 251.831 324.44 252.072C323.882 252.314 323.258 252.401 322.57 252.335C321.781 252.258 321.078 251.985 320.463 251.516C319.848 251.046 319.385 250.426 319.072 249.656C318.772 248.875 318.668 248.006 318.761 247.047C318.853 246.099 319.121 245.277 319.564 244.58C320.018 243.884 320.586 243.369 321.268 243.037C321.96 242.705 322.707 242.578 323.508 242.656ZM326.135 247.795C326.191 247.22 326.126 246.718 325.94 246.29C325.754 245.851 325.48 245.506 325.118 245.254C324.756 244.991 324.355 244.839 323.915 244.796C323.475 244.753 323.059 244.821 322.666 245C322.273 245.178 321.938 245.464 321.66 245.859C321.395 246.243 321.236 246.717 321.181 247.281C321.126 247.845 321.191 248.352 321.375 248.803C321.572 249.243 321.845 249.594 322.195 249.856C322.557 250.119 322.952 250.271 323.381 250.312C323.821 250.355 324.243 250.288 324.647 250.11C325.053 249.922 325.388 249.636 325.653 249.251C325.919 248.856 326.08 248.37 326.135 247.795Z" fill="#4F00CF"/>
<path d="M312.271 251.337C311.368 251.25 310.575 250.974 309.891 250.509C309.209 250.033 308.694 249.408 308.348 248.634C308.013 247.862 307.892 246.996 307.985 246.037C308.077 245.078 308.368 244.252 308.856 243.56C309.356 242.868 309.992 242.36 310.763 242.036C311.536 241.701 312.373 241.577 313.276 241.665C314.178 241.752 314.976 242.035 315.67 242.512C316.365 242.977 316.886 243.597 317.232 244.371C317.59 245.146 317.722 246.012 317.629 246.971C317.537 247.93 317.235 248.755 316.724 249.445C316.224 250.137 315.582 250.65 314.798 250.984C314.027 251.308 313.184 251.425 312.271 251.337ZM312.471 249.273C312.899 249.314 313.31 249.251 313.701 249.084C314.106 248.907 314.441 248.621 314.707 248.225C314.973 247.83 315.135 247.333 315.193 246.735C315.279 245.844 315.108 245.139 314.68 244.619C314.265 244.089 313.719 243.791 313.042 243.726C312.365 243.66 311.772 243.848 311.262 244.288C310.765 244.718 310.474 245.379 310.387 246.27C310.301 247.161 310.454 247.87 310.847 248.398C311.253 248.916 311.794 249.207 312.471 249.273Z" fill="#4F00CF"/>
<path d="M306.995 238.033L305.782 250.555L303.413 250.325L304.626 237.804L306.995 238.033Z" fill="#4F00CF"/>
<path d="M291.794 244.435C291.885 243.487 292.153 242.665 292.596 241.968C293.051 241.271 293.619 240.757 294.3 240.425C294.992 240.093 295.739 239.966 296.54 240.044C297.24 240.112 297.835 240.312 298.327 240.644C298.829 240.977 299.218 241.373 299.492 241.833L299.622 240.496L302.008 240.727L301.1 250.101L298.714 249.87L298.847 248.5C298.5 248.91 298.041 249.236 297.471 249.476C296.914 249.707 296.285 249.789 295.586 249.721C294.796 249.644 294.094 249.371 293.479 248.902C292.875 248.434 292.417 247.814 292.105 247.044C291.804 246.263 291.701 245.394 291.794 244.435ZM299.168 245.183C299.224 244.608 299.158 244.106 298.972 243.678C298.787 243.239 298.513 242.894 298.15 242.642C297.788 242.379 297.388 242.227 296.948 242.184C296.508 242.141 296.091 242.209 295.698 242.388C295.305 242.566 294.97 242.852 294.693 243.247C294.428 243.631 294.268 244.105 294.213 244.669C294.159 245.233 294.223 245.74 294.408 246.191C294.604 246.631 294.877 246.982 295.228 247.244C295.59 247.507 295.985 247.659 296.413 247.7C296.853 247.743 297.275 247.676 297.68 247.498C298.085 247.31 298.42 247.024 298.685 246.639C298.951 246.244 299.112 245.758 299.168 245.183Z" fill="#4F00CF"/>
<path d="M289.454 238.384C289.036 238.344 288.699 238.18 288.442 237.893C288.198 237.596 288.095 237.25 288.133 236.856C288.171 236.461 288.338 236.147 288.634 235.913C288.942 235.67 289.305 235.569 289.722 235.609C290.14 235.649 290.471 235.818 290.715 236.115C290.972 236.402 291.082 236.743 291.043 237.137C291.005 237.532 290.832 237.851 290.524 238.095C290.228 238.328 289.871 238.424 289.454 238.384ZM290.513 239.614L289.605 248.988L287.236 248.759L288.144 239.384L290.513 239.614Z" fill="#4F00CF"/>
<path d="M280.38 236.173C281.621 236.293 282.686 236.641 283.575 237.217C284.476 237.794 285.136 238.558 285.556 239.51C285.989 240.451 286.148 241.514 286.033 242.698C285.919 243.883 285.559 244.896 284.953 245.737C284.361 246.567 283.567 247.179 282.572 247.573C281.589 247.967 280.477 248.104 279.236 247.984L275.107 247.584L276.251 235.773L280.38 236.173ZM279.347 245.962C280.587 246.082 281.579 245.837 282.321 245.225C283.064 244.614 283.495 243.694 283.614 242.464C283.733 241.235 283.487 240.243 282.877 239.489C282.268 238.724 281.343 238.282 280.102 238.162L278.427 237.999L277.671 245.8L279.347 245.962Z" fill="#4F00CF"/>
<path d="M335.084 219.773L334.645 224.308C334.615 224.624 334.666 224.862 334.798 225.023C334.943 225.174 335.196 225.267 335.557 225.301L336.657 225.408L336.463 227.405L334.974 227.26C332.977 227.067 332.073 226 332.261 224.06L332.699 219.542L331.582 219.434L331.77 217.488L332.887 217.596L333.112 215.278L335.497 215.509L335.273 217.827L337.371 218.031L337.183 219.976L335.084 219.773Z" fill="#4F00CF"/>
<path d="M321.273 221.202C321.367 220.232 321.646 219.405 322.111 218.722C322.577 218.027 323.178 217.516 323.916 217.189C324.655 216.85 325.475 216.725 326.378 216.812C327.54 216.925 328.47 217.311 329.169 217.971C329.88 218.62 330.315 219.482 330.473 220.556L327.918 220.309C327.822 219.89 327.621 219.551 327.316 219.294C327.023 219.027 326.64 218.87 326.166 218.824C325.489 218.758 324.929 218.955 324.486 219.413C324.044 219.86 323.78 220.534 323.692 221.437C323.606 222.328 323.736 223.041 324.083 223.575C324.431 224.099 324.943 224.393 325.62 224.459C326.579 224.552 327.247 224.184 327.623 223.355L330.178 223.602C329.82 224.592 329.229 225.349 328.404 225.873C327.579 226.396 326.591 226.602 325.44 226.491C324.538 226.403 323.756 226.128 323.095 225.666C322.435 225.192 321.942 224.575 321.618 223.815C321.294 223.043 321.179 222.173 321.273 221.202Z" fill="#4F00CF"/>
<path d="M320.172 220.891C320.14 221.229 320.088 221.532 320.016 221.798L313.163 221.134C313.154 221.817 313.34 222.37 313.72 222.794C314.1 223.218 314.595 223.459 315.204 223.518C316.084 223.603 316.747 223.286 317.192 222.566L319.747 222.814C319.389 223.69 318.798 224.384 317.974 224.897C317.151 225.398 316.181 225.594 315.065 225.486C314.162 225.398 313.369 225.122 312.685 224.658C312.014 224.183 311.511 223.559 311.176 222.786C310.852 222.015 310.737 221.15 310.829 220.191C310.923 219.221 311.203 218.388 311.669 217.693C312.135 216.998 312.742 216.488 313.491 216.162C314.24 215.836 315.077 215.718 316.002 215.807C316.893 215.893 317.67 216.162 318.332 216.614C319.006 217.066 319.5 217.666 319.815 218.414C320.142 219.151 320.261 219.977 320.172 220.891ZM317.785 219.976C317.832 219.366 317.659 218.86 317.266 218.457C316.873 218.044 316.366 217.807 315.746 217.747C315.159 217.69 314.646 217.822 314.205 218.144C313.776 218.455 313.486 218.922 313.334 219.545L317.785 219.976Z" fill="#4F00CF"/>
<path d="M309.857 212.189L308.644 224.71L306.275 224.481L307.488 211.959L309.857 212.189Z" fill="#4F00CF"/>
<path d="M305.02 219.423C304.987 219.762 304.935 220.064 304.864 220.331L298.011 219.667C298.001 220.349 298.187 220.902 298.567 221.326C298.948 221.75 299.442 221.992 300.051 222.051C300.931 222.136 301.594 221.819 302.039 221.099L304.594 221.346C304.236 222.223 303.645 222.917 302.821 223.429C301.999 223.93 301.029 224.127 299.912 224.018C299.01 223.931 298.216 223.655 297.533 223.19C296.861 222.715 296.358 222.091 296.023 221.319C295.699 220.547 295.584 219.682 295.677 218.723C295.771 217.753 296.051 216.921 296.516 216.226C296.982 215.531 297.59 215.02 298.339 214.694C299.087 214.368 299.924 214.25 300.849 214.34C301.741 214.426 302.517 214.695 303.18 215.146C303.853 215.598 304.347 216.198 304.662 216.946C304.989 217.684 305.108 218.51 305.02 219.423ZM302.632 218.509C302.68 217.899 302.507 217.392 302.113 216.99C301.72 216.576 301.214 216.339 300.593 216.279C300.007 216.222 299.493 216.355 299.052 216.676C298.623 216.988 298.333 217.455 298.182 218.078L302.632 218.509Z" fill="#4F00CF"/>
<path d="M289.587 222.984C288.764 222.904 288.033 222.691 287.395 222.345C286.768 221.999 286.288 221.543 285.956 220.976C285.624 220.408 285.487 219.763 285.546 219.04L288.084 219.286C288.071 219.774 288.203 220.174 288.48 220.486C288.768 220.798 289.183 220.981 289.725 221.033C290.278 221.087 290.725 220.999 291.066 220.77C291.408 220.53 291.599 220.196 291.641 219.767C291.675 219.417 291.595 219.119 291.403 218.873C291.211 218.627 290.957 218.425 290.642 218.27C290.339 218.104 289.913 217.915 289.364 217.702C288.619 217.402 288.014 217.121 287.55 216.86C287.098 216.589 286.719 216.216 286.412 215.742C286.117 215.258 286.006 214.644 286.078 213.899C286.145 213.2 286.379 212.608 286.779 212.123C287.179 211.638 287.708 211.29 288.366 211.081C289.025 210.86 289.761 210.789 290.573 210.868C291.791 210.986 292.749 211.38 293.447 212.051C294.157 212.712 294.501 213.577 294.477 214.645L291.871 214.392C291.888 213.984 291.745 213.634 291.443 213.343C291.154 213.042 290.744 212.865 290.214 212.814C289.751 212.769 289.367 212.852 289.062 213.061C288.769 213.272 288.6 213.603 288.556 214.054C288.526 214.37 288.602 214.645 288.784 214.879C288.979 215.103 289.222 215.297 289.513 215.462C289.817 215.617 290.243 215.806 290.79 216.03C291.535 216.33 292.14 216.616 292.603 216.888C293.066 217.161 293.451 217.54 293.757 218.025C294.063 218.51 294.18 219.119 294.109 219.852C294.048 220.484 293.828 221.055 293.448 221.565C293.068 222.074 292.547 222.462 291.884 222.728C291.221 222.983 290.456 223.068 289.587 222.984Z" fill="#4F00CF"/>
</svg>
