<svg width="33" height="30" viewBox="0 0 33 30" fill="none" xmlns="http://www.w3.org/2000/svg">
<path d="M25.2947 13.4381L25.3038 13.4384H25.3128H25.3524C26.2578 13.4384 27.0066 12.7204 27.038 11.8077L27.0381 11.8073C27.0883 10.3213 26.6704 8.99998 25.866 8.00834C25.0597 7.0144 23.8876 6.38048 22.4896 6.23757C21.5618 6.13873 20.7335 6.82228 20.6371 7.74366L20.637 7.74498C20.5425 8.67205 21.2175 9.5 22.1444 9.59459C22.6634 9.64771 23.0357 9.86378 23.2813 10.1898C23.5332 10.5241 23.6878 11.023 23.6652 11.6945C23.6337 12.6276 24.366 13.4044 25.2947 13.4381ZM16.0108 3.70019L16.387 4.10354L16.7516 3.6898C18.9371 1.21014 22.4779 0.846979 25.0698 1.67561C30.918 3.55919 32.839 10.3849 31.1257 15.734L31.1249 15.7366C29.7913 19.9776 26.784 23.2311 23.7367 25.431C22.2154 26.5293 20.6943 27.3573 19.3865 27.9091C18.063 28.4675 17.0052 28.723 16.3987 28.723C15.704 28.723 14.6034 28.4598 13.2713 27.8968C11.9515 27.3389 10.4446 26.5037 8.94629 25.4005C5.94586 23.1915 3.0174 19.9368 1.66678 15.7336C0.818182 13.0831 0.860389 10.0272 1.85632 7.40374C2.84894 4.78898 4.77969 2.62083 7.7121 1.67707L7.71318 1.67671C10.2734 0.846279 13.6986 1.22055 16.0108 3.70019Z" stroke="#4F00CF"/>
</svg>
