<svg width="38" height="38" viewBox="0 0 38 38" fill="none" xmlns="http://www.w3.org/2000/svg">
<path fill-rule="evenodd" clip-rule="evenodd" d="M28.3524 16.9384H28.3128C27.6573 16.9146 27.1428 16.3668 27.1649 15.7113C27.2156 14.2055 26.4793 13.2286 25.1953 13.0972C24.5429 13.0307 24.0679 12.448 24.1344 11.7957C24.2025 11.1449 24.7883 10.6652 25.4375 10.7349C27.9835 10.9945 29.6318 13.0259 29.5383 15.7904C29.5162 16.4333 28.9889 16.9384 28.3524 16.9384ZM28.2226 5.19952C25.4993 4.32869 21.7293 4.68969 19.3765 7.35919C16.9049 4.70869 13.2632 4.32394 10.5589 5.20111C4.36017 7.19611 2.42692 14.3781 4.19075 19.8866C6.97425 28.549 16.2288 33.223 19.3987 33.223C22.2281 33.223 31.85 28.6376 34.6018 19.8866C36.3657 14.3797 34.4277 7.19769 28.2226 5.19952Z" fill="#4F00CF"/>
</svg>
