<svg width="142" height="50" viewBox="0 0 142 50" fill="none" xmlns="http://www.w3.org/2000/svg">
<path d="M59.5161 20.9814C59.5161 19.3861 58.7515 18.5884 57.2222 18.5884C56.5614 18.5884 55.825 19.0037 55.0132 19.8345C53.7954 21.09 52.9458 22.5863 52.4644 24.3232C52.3133 24.8708 52.2378 25.3758 52.2378 25.8384C52.2378 27.4054 53.0308 28.189 54.6167 28.189C55.2492 28.1984 55.9714 27.7783 56.7832 26.9287C57.9632 25.6826 58.7987 24.1722 59.2896 22.3975C59.4406 21.8499 59.5161 21.3779 59.5161 20.9814ZM55.6504 35.5522C52.2992 35.5522 49.3916 34.4666 46.9277 32.2954C46.1442 31.6063 45.4645 30.818 44.8887 29.9307C43.6615 28.0521 43.0479 25.9517 43.0479 23.6294C43.0479 21.2977 43.6143 19.235 44.7471 17.4414C45.8799 15.6478 47.3997 14.2507 49.3066 13.25C51.2135 12.2493 53.1865 11.749 55.2256 11.749C57.2741 11.749 59.0771 12.0228 60.6348 12.5703C62.1924 13.1178 63.547 13.9061 64.6987 14.9351C65.8599 15.9546 66.7708 17.2054 67.4316 18.6875C68.0924 20.1696 68.4229 21.8452 68.4229 23.7144C68.4229 26.0366 67.8328 28.104 66.6528 29.9165C65.4728 31.7196 63.901 33.112 61.9375 34.0938C59.974 35.0661 57.8783 35.5522 55.6504 35.5522ZM87.0151 20.9814C87.0151 19.3861 86.2505 18.5884 84.7212 18.5884C84.0604 18.5884 83.3241 19.0037 82.5122 19.8345C81.2944 21.09 80.4448 22.5863 79.9634 24.3232C79.8123 24.8708 79.7368 25.3758 79.7368 25.8384C79.7368 27.4054 80.5298 28.189 82.1157 28.189C82.7482 28.1984 83.4704 27.7783 84.2822 26.9287C85.4622 25.6826 86.2977 24.1722 86.7886 22.3975C86.9396 21.8499 87.0151 21.3779 87.0151 20.9814ZM83.1494 35.5522C79.7982 35.5522 76.8906 34.4666 74.4268 32.2954C73.6432 31.6063 72.9635 30.818 72.3877 29.9307C71.1605 28.0521 70.5469 25.9517 70.5469 23.6294C70.5469 21.2977 71.1133 19.235 72.2461 17.4414C73.3789 15.6478 74.8988 14.2507 76.8057 13.25C78.7126 12.2493 80.6855 11.749 82.7246 11.749C84.7731 11.749 86.5762 12.0228 88.1338 12.5703C89.6914 13.1178 91.0461 13.9061 92.1978 14.9351C93.3589 15.9546 94.2699 17.2054 94.9307 18.6875C95.5915 20.1696 95.9219 21.8452 95.9219 23.7144C95.9219 26.0366 95.3319 28.104 94.1519 29.9165C92.9718 31.7196 91.4001 33.112 89.4365 34.0938C87.473 35.0661 85.3773 35.5522 83.1494 35.5522ZM98.7397 12.3862H115.01V18.7866H107.547V20.8823H115.01V27.0562H107.547V35H98.7397V12.3862ZM117.488 12.3862H133.758V18.7866H126.295V20.8823H133.758V27.0562H126.295V35H117.488V12.3862Z" fill="#4F00CF"/>
<path d="M13.8428 16.4265C15.8059 11.9419 21.227 10.4843 24.9828 13.8349C25.7519 14.5193 26.3619 15.3927 26.8158 16.4466C28.1082 19.4678 27.4779 22.2313 24.9221 24.7285C21.334 28.2451 17.7257 31.7646 14.1001 35.2956C13.8081 35.582 13.5161 35.5791 13.224 35.2927C9.64465 31.7675 6.07106 28.2623 2.50325 24.7743C-0.385121 21.9506 -0.873744 17.9128 1.5607 14.6252C2.47722 13.3853 3.98357 12.5118 5.52461 12.1768C9.17627 11.3835 11.9981 13.348 13.6982 16.4351C13.73 16.4924 13.8138 16.4895 13.8428 16.4265Z" fill="#8C46FF"/>
<path d="M27.6106 16.4265C29.5737 11.9419 34.9949 10.4843 38.7506 13.8349C39.5197 14.5193 40.1297 15.3927 40.5837 16.4466C41.8761 19.4678 41.2458 22.2313 38.6899 24.7285C35.1018 28.2451 31.4935 31.7646 27.8679 35.2956C27.5759 35.582 27.2839 35.5791 26.9919 35.2927C23.4125 31.7675 19.8389 28.2623 16.2711 24.7743C13.3827 21.9506 12.8941 17.9128 15.3285 14.6252C16.245 13.3853 17.7514 12.5118 19.2924 12.1768C22.9441 11.3835 25.766 13.348 27.466 16.4351C27.4978 16.4924 27.5817 16.4895 27.6106 16.4265Z" fill="#4F00CF"/>
</svg>
