<svg width="50" height="50" viewBox="0 0 50 50" fill="none" xmlns="http://www.w3.org/2000/svg">
<path d="M0 25C0 11.1929 11.1929 0 25 0C38.8071 0 50 11.1929 50 25C50 38.8071 38.8071 50 25 50C11.1929 50 0 38.8071 0 25Z" fill="#F3F3F3"/>
<path d="M25.5192 14.9167C30.9625 14.9167 35.0833 19.3796 35.0833 24.4856C35.0833 30.4074 30.2533 34.0833 25.5 34.0833C23.9283 34.0833 22.1842 33.661 20.785 32.8356C20.2962 32.5381 19.8842 32.3174 19.3571 32.4901L17.4212 33.066C16.9325 33.2195 16.4917 32.8356 16.6354 32.3174L17.2775 30.1675C17.3829 29.8699 17.3638 29.5532 17.2104 29.3037C16.3863 27.7872 15.9167 26.1268 15.9167 24.5144C15.9167 19.466 19.9513 14.9167 25.5192 14.9167ZM29.8988 23.2955C29.2183 23.2955 28.6721 23.8426 28.6721 24.524C28.6721 25.1958 29.2183 25.7525 29.8988 25.7525C30.5792 25.7525 31.1254 25.1958 31.1254 24.524C31.1254 23.8426 30.5792 23.2955 29.8988 23.2955ZM25.4808 23.2955C24.81 23.2859 24.2542 23.8426 24.2542 24.5144C24.2542 25.1958 24.8004 25.7429 25.4808 25.7525C26.1612 25.7525 26.7075 25.1958 26.7075 24.524C26.7075 23.8426 26.1612 23.2955 25.4808 23.2955ZM21.0629 23.2955C20.3825 23.2955 19.8363 23.8426 19.8363 24.524C19.8363 25.1958 20.3921 25.7525 21.0629 25.7525C21.7433 25.7429 22.2896 25.1958 22.2896 24.524C22.2896 23.8426 21.7433 23.2955 21.0629 23.2955Z" fill="#4F00CF"/>
</svg>
