<svg width="18" height="14" viewBox="0 0 18 14" fill="none" xmlns="http://www.w3.org/2000/svg">
<path fill-rule="evenodd" clip-rule="evenodd" d="M17.2495 0.438336C18.112 1.12836 18.2518 2.38694 17.5618 3.24946L9.56181 13.2495C8.87179 14.112 7.61321 14.2518 6.75068 13.5618C5.88816 12.8718 5.74832 11.6132 6.43834 10.7507L14.4383 0.750683C15.1284 -0.11184 16.3869 -0.251683 17.2495 0.438336Z" fill="#007E2B"/>
<path fill-rule="evenodd" clip-rule="evenodd" d="M0.698454 3.48152C1.53711 2.76268 2.79971 2.8598 3.51855 3.69845L9.51855 10.6985C10.2374 11.5371 10.1403 12.7997 9.30162 13.5185C8.46297 14.2374 7.20037 14.1403 6.48152 13.3016L0.481523 6.30162C-0.237321 5.46297 -0.140198 4.20037 0.698454 3.48152Z" fill="#007E2B"/>
</svg>
