<svg width="24" height="24" viewBox="0 0 24 24" fill="none" xmlns="http://www.w3.org/2000/svg">
<path d="M6.37929 17.6543C5.99277 17.2704 5.37317 17.2704 4.98665 17.6543L2.43198 19.7164H2.38763C1.87079 20.2388 1.87079 21.0858 2.38763 21.6082C2.90447 22.1306 3.74244 22.1306 4.25928 21.6082L6.37929 19.1785L6.45974 19.0877C6.6096 18.898 6.69237 18.6615 6.69237 18.4164C6.69237 18.1304 6.57971 17.8562 6.37929 17.6543ZM13.4224 2C11.1474 2 8.96567 2.91344 7.35705 4.53936C5.74843 6.16529 4.84472 8.37052 4.84472 10.6699C4.84472 15.4582 8.68506 19.3399 13.4224 19.3399C18.1597 19.3399 22 15.4582 22 10.6699C22 5.88166 18.1597 2 13.4224 2Z" fill="#4F00CF"/>
</svg>
