<svg width="50" height="50" viewBox="0 0 50 50" fill="none" xmlns="http://www.w3.org/2000/svg">
<rect width="50" height="50" rx="25" fill="#4F00CF"/>
<path fill-rule="evenodd" clip-rule="evenodd" d="M33.7158 16.7413C33.6688 16.6533 33.5978 16.5813 33.5098 16.5343C31.4238 15.4243 18.9448 19.2923 15.7168 21.1543C14.8758 21.6393 14.5008 22.2093 14.6038 22.8453C14.9008 24.6873 19.8638 26.0833 22.5568 26.7083L27.6138 21.6523C27.9068 21.3593 28.3818 21.3593 28.6748 21.6523C28.9678 21.9453 28.9678 22.4203 28.6748 22.7133L23.5688 27.8173C24.2098 30.5383 25.5908 35.3533 27.4038 35.6453C27.4718 35.6563 27.5398 35.6623 27.6068 35.6623C28.1608 35.6623 28.6608 35.2823 29.0938 34.5323C30.9558 31.3073 34.8268 18.8303 33.7158 16.7413Z" fill="white"/>
</svg>
