<svg width="24" height="24" viewBox="0 0 24 24" fill="none" xmlns="http://www.w3.org/2000/svg">
<path d="M24 12C24 18.6274 18.6274 24 12 24C5.37258 24 0 18.6274 0 12C0 5.37258 5.37258 0 12 0C18.6274 0 24 5.37258 24 12Z" fill="#F7F7F7"/>
<path d="M17.9923 17.2149C18.4102 17.2149 18.75 17.5592 18.75 17.9825C18.75 18.4065 18.4102 18.75 17.9923 18.75H13.7098C13.2919 18.75 12.9521 18.4065 12.9521 17.9825C12.9521 17.5592 13.2919 17.2149 13.7098 17.2149H17.9923ZM15.0224 5.7743L16.1286 6.65309C16.5823 7.00783 16.8847 7.47544 16.9882 7.96724C17.1076 8.50822 16.9802 9.03953 16.6221 9.49908L10.0323 18.0209C9.72987 18.4079 9.28418 18.6256 8.80666 18.6337L6.1803 18.6659C6.03704 18.6659 5.91766 18.5692 5.88583 18.4321L5.28892 15.8441C5.18546 15.3684 5.28892 14.8766 5.59135 14.4977L10.2631 8.45098C10.3427 8.35423 10.4859 8.33891 10.5814 8.41067L12.5472 9.97475C12.6746 10.0796 12.8497 10.136 13.0327 10.1118C13.4227 10.0634 13.6853 9.7087 13.6455 9.32977C13.6217 9.13627 13.5262 8.97503 13.3988 8.8541C13.359 8.82185 11.4887 7.32226 11.4887 7.32226C11.3694 7.22551 11.3455 7.04814 11.441 6.92801L12.1811 5.96779C12.8656 5.089 14.0594 5.00838 15.0224 5.7743Z" fill="#969696"/>
</svg>
